<?xml version="1.0" encoding="UTF-8"?>
<svg id="Layer_1" xmlns="http://www.w3.org/2000/svg" version="1.1" viewBox="0 0 30 30">
  <!-- Generator: Adobe Illustrator 30.3.0, SVG Export Plug-In . SVG Version: 2.1.3 Build 182)  -->
  <path d="M15.09,4.85c-.22,0-.45-.09-.62-.26l-1.17-1.17c-.34-.34-.34-.9,0-1.24.34-.34.9-.34,1.24,0l1.17,1.17c.34.34.34.9,0,1.24-.17.17-.4.26-.62.26Z"/>
  <path d="M20.55,4.85c-.22,0-.45-.09-.62-.26-.34-.34-.34-.9,0-1.24l1.17-1.17c.34-.34.9-.34,1.24,0,.34.34.34.9,0,1.24l-1.17,1.17c-.17.17-.4.26-.62.26Z"/>
  <path d="M17.82,3.5c-.48,0-.88-.39-.88-.88V.96c0-.48.39-.88.88-.88s.88.39.88.88v1.66c0,.48-.39.88-.88.88Z"/>
  <path d="M7.73,10.72c-.39,0-.74-.26-.85-.65L4.65,1.75h-2.56c-.48,0-.88-.39-.88-.88S1.6,0,2.08,0h3.24c.4,0,.74.27.85.65l2.41,8.97c.13.47-.15.95-.62,1.07-.08.02-.15.03-.23.03Z"/>
  <path d="M24.77,30c-1.47,0-2.67-1.2-2.67-2.67s1.2-2.67,2.67-2.67,2.67,1.2,2.67,2.67-1.2,2.67-2.67,2.67ZM24.77,26.41c-.51,0-.92.41-.92.92s.41.92.92.92.92-.41.92-.92-.41-.92-.92-.92Z"/>
  <path d="M10.93,30c-1.47,0-2.67-1.2-2.67-2.67s1.2-2.67,2.67-2.67,2.67,1.2,2.67,2.67-1.2,2.67-2.67,2.67ZM10.93,26.41c-.51,0-.92.41-.92.92s.41.92.92.92.92-.41.92-.92-.41-.92-.92-.92Z"/>
  <path d="M24.77,26.4h-13.78c-1.45,0-2.62-1.18-2.62-2.62s1.18-2.62,2.62-2.62c.48,0,.88.39.88.88s-.39.88-.88.88-.87.39-.87.87.39.87.87.87h13.78c.48,0,.88.39.88.88s-.39.88-.88.88Z"/>
  <path d="M24.69,22.91h-13.74c-.4,0-.75-.27-.85-.65l-3.23-12.19c-.07-.26-.01-.54.15-.76.17-.22.42-.34.69-.34h20.19c.27,0,.53.13.69.34.17.22.22.5.15.76l-3.23,12.19c-.1.38-.45.65-.85.65ZM11.63,21.16h12.39l2.76-10.44H8.87l2.76,10.44Z"/>
</svg>