<?xml version="1.0" encoding="UTF-8"?>
<svg id="Layer_1" xmlns="http://www.w3.org/2000/svg" version="1.1" viewBox="0 0 24.01 24.61">
  <!-- Generator: Adobe Illustrator 30.3.0, SVG Export Plug-In . SVG Version: 2.1.3 Build 182)  -->
  <defs>
    <style>
      .st0 {
        fill: #efefef;
      }
    </style>
  </defs>
  <path class="st0" d="M13.72,24.31h-3.43c-.36,0-.68-.25-.76-.61l-.46-2.02c-.55-.18-1.09-.41-1.6-.68l-1.77,1.11c-.31.19-.71.15-.97-.11l-2.42-2.42c-.25-.25-.3-.66-.11-.97l1.13-1.8c-.26-.5-.47-1.03-.65-1.56l-2.06-.47c-.36-.08-.61-.4-.61-.76v-3.43c0-.36.25-.68.61-.76l2.06-.47c.17-.54.39-1.06.65-1.56l-1.12-1.79c-.19-.31-.15-.71.11-.97l2.42-2.42c.25-.25.66-.3.97-.11l1.77,1.11c.52-.28,1.05-.5,1.6-.68l.46-2.02c.08-.36.4-.61.76-.61h3.43c.36,0,.68.25.76.61l.45,1.97c.58.18,1.14.41,1.68.69l1.7-1.07c.31-.19.71-.15.97.11l2.42,2.42c.25.25.3.66.11.97l-1.05,1.67c.3.55.54,1.13.72,1.72l1.91.44c.36.08.61.4.61.76v3.42c0,.36-.25.68-.61.76l-1.91.44c-.19.59-.43,1.17-.72,1.72l1.05,1.67c.19.31.15.71-.11.97l-2.42,2.42c-.25.25-.66.3-.97.11l-1.7-1.07c-.54.28-1.1.51-1.68.69l-.45,1.97c-.08.35-.4.61-.76.61h0ZM10.91,22.74h2.18l.42-1.82c.07-.29.29-.51.57-.58.76-.19,1.48-.48,2.16-.88.25-.14.56-.14.81.01l1.56.98,1.54-1.54-.96-1.53c-.16-.25-.16-.56,0-.82.41-.69.72-1.42.92-2.19.08-.28.3-.5.58-.57l1.75-.41v-2.18l-1.75-.41c-.28-.07-.51-.28-.58-.57-.2-.77-.51-1.51-.92-2.19-.15-.25-.15-.57,0-.82l.96-1.53-1.54-1.54-1.56.98c-.25.15-.56.16-.81.01-.68-.4-1.4-.69-2.16-.88-.29-.07-.51-.3-.57-.58l-.42-1.82h-2.18l-.43,1.85c-.06.28-.28.5-.56.58-.73.2-1.43.5-2.08.88-.25.15-.56.14-.82,0l-1.63-1-1.54,1.55,1.04,1.66c.15.25.16.56.01.81-.38.65-.66,1.33-.85,2.05-.08.28-.3.5-.58.56l-1.91.44v2.18l1.91.44c.28.06.51.28.58.56.19.72.47,1.4.85,2.05.14.25.14.56-.01.81l-1.04,1.66,1.54,1.54,1.63-1.03c.25-.16.56-.16.82,0,.65.39,1.36.69,2.08.88.28.08.5.3.56.58l.43,1.86v-.03Z"/>
  <path class="st0" d="M12.14,16.92c-2.47,0-4.47-2.01-4.47-4.47s2.01-4.47,4.47-4.47,4.47,2.01,4.47,4.47-2,4.47-4.47,4.47ZM12.14,9.53c-1.6,0-2.91,1.31-2.91,2.91s1.31,2.91,2.91,2.91,2.91-1.31,2.91-2.91-1.31-2.91-2.91-2.91Z"/>
</svg>