<?xml version="1.0" encoding="UTF-8"?>
<svg id="Layer_1" xmlns="http://www.w3.org/2000/svg" version="1.1" viewBox="0 0 75 75">
  <!-- Generator: Adobe Illustrator 30.3.0, SVG Export Plug-In . SVG Version: 2.1.3 Build 182)  -->
  <defs>
    <style>
      .st0 {
        fill: #292929;
      }
    </style>
  </defs>
  <g id="Location">
    <path class="st0" d="M43,62.15l-10.19,5.09v-28.57c0-.65-.52-1.17-1.17-1.17s-1.17.52-1.17,1.17v28.57L2.34,53.18V18.3l8.2,4.1v11.58c0,.44.25.85.65,1.05l7.03,3.52c.17.08.35.12.52.12.21,0,.43-.06.62-.18.35-.21.56-.59.56-1v-10.41l11.19,5.6c.16.08.34.12.52.12s.36-.04.52-.12l28.77-14.39v15.83c0,.65.52,1.17,1.17,1.17s1.17-.52,1.17-1.17v-17.73c0-.44-.25-.85-.65-1.05L32.16.12c-.33-.16-.72-.16-1.05,0L.65,15.36c-.4.2-.65.6-.65,1.05v37.5c0,.44.25.85.65,1.05l30.47,15.23s.02,0,.03,0c.15.07.31.12.49.12s.34-.05.49-.12c.01,0,.02,0,.03,0l11.88-5.94c.58-.29.81-.99.52-1.57-.29-.58-.99-.81-1.57-.52ZM18.75,23.88l-4.41-2.21,27.85-13.92,4.41,2.21-27.85,13.92ZM17.58,35.6l-4.69-2.34v-9.68l4.69,2.34v9.68ZM31.64,30.33l-10.27-5.13,27.85-13.92,10.27,5.13-27.85,13.92ZM31.64,2.48l7.93,3.96-27.85,13.92-7.93-3.96L31.64,2.48Z"/>
    <path class="st0" d="M18.1,48.17c-.36-.18-.8-.16-1.14.05s-.56.59-.56,1v7.03c0,.44.25.85.65,1.05l9.38,4.69c.17.08.35.12.52.12.21,0,.43-.06.62-.18.35-.21.56-.59.56-1v-7.03c0-.44-.25-.85-.65-1.05l-9.38-4.69ZM25.78,59.04l-7.03-3.52v-4.41l7.03,3.52v4.41Z"/>
    <path class="st0" d="M59.77,37.5c-8.4,0-15.23,6.83-15.23,15.23,0,13.41,14.05,21.76,14.64,22.11.18.11.39.16.59.16s.41-.05.59-.16c.6-.35,14.64-8.7,14.64-22.11,0-8.4-6.83-15.23-15.23-15.23ZM59.77,72.44c-2.6-1.71-12.89-9.13-12.89-19.71,0-7.11,5.78-12.89,12.89-12.89s12.89,5.78,12.89,12.89c0,10.58-10.29,18-12.89,19.71Z"/>
    <path class="st0" d="M59.77,44.53c-4.52,0-8.2,3.68-8.2,8.2s3.68,8.2,8.2,8.2,8.2-3.68,8.2-8.2-3.68-8.2-8.2-8.2ZM59.77,58.59c-3.23,0-5.86-2.63-5.86-5.86s2.63-5.86,5.86-5.86,5.86,2.63,5.86,5.86-2.63,5.86-5.86,5.86Z"/>
  </g>
</svg>