<?xml version="1.0" encoding="UTF-8"?>
<svg id="Layer_1" xmlns="http://www.w3.org/2000/svg" version="1.1" viewBox="0 0 21.47 23.34">
  <!-- Generator: Adobe Illustrator 30.3.0, SVG Export Plug-In . SVG Version: 2.1.3 Build 182)  -->
  <defs>
    <style>
      .st0 {
        fill: #fff;
      }
    </style>
  </defs>
  <path class="st0" d="M10.8,3.78c-.17,0-.35-.07-.48-.2l-.91-.91c-.27-.27-.27-.7,0-.96.27-.27.7-.27.96,0l.91.91c.27.27.27.7,0,.96-.13.13-.31.2-.48.2Z"/>
  <path class="st0" d="M15.06,3.78c-.17,0-.35-.07-.48-.2-.27-.27-.27-.7,0-.96l.91-.91c.27-.27.7-.27.96,0,.27.27.27.7,0,.96l-.91.91c-.13.13-.31.2-.48.2Z"/>
  <path class="st0" d="M12.93,2.72c-.38,0-.68-.31-.68-.68V.75c0-.38.31-.68.68-.68s.68.31.68.68v1.29c0,.38-.31.68-.68.68Z"/>
  <path class="st0" d="M5.07,8.34c-.3,0-.58-.2-.66-.51L2.68,1.36H.68c-.38,0-.68-.31-.68-.68S.31,0,.68,0h2.52C3.51,0,3.78.21,3.86.51l1.87,6.98c.1.36-.12.74-.48.84-.06.02-.12.02-.18.02Z"/>
  <path class="st0" d="M18.33,23.34c-1.15,0-2.08-.93-2.08-2.08s.93-2.08,2.08-2.08,2.08.93,2.08,2.08-.93,2.08-2.08,2.08ZM18.33,20.55c-.39,0-.71.32-.71.71s.32.71.71.71.71-.32.71-.71-.32-.71-.71-.71Z"/>
  <path class="st0" d="M7.57,23.34c-1.15,0-2.08-.93-2.08-2.08s.93-2.08,2.08-2.08,2.08.93,2.08,2.08-.93,2.08-2.08,2.08ZM7.57,20.55c-.39,0-.71.32-.71.71s.32.71.71.71.71-.32.71-.71-.32-.71-.71-.71Z"/>
  <path class="st0" d="M18.33,20.54H7.61c-1.13,0-2.04-.92-2.04-2.04s.92-2.04,2.04-2.04c.38,0,.68.31.68.68s-.31.68-.68.68-.68.3-.68.68.3.68.68.68h10.73c.38,0,.68.31.68.68s-.31.68-.68.68Z"/>
  <path class="st0" d="M18.28,17.83H7.58c-.31,0-.58-.21-.66-.51l-2.51-9.48c-.05-.2-.01-.42.12-.59.13-.17.33-.27.54-.27h15.71c.21,0,.41.1.54.27.13.17.17.39.12.59l-2.51,9.48c-.08.3-.35.51-.66.51ZM8.11,16.46h9.64l2.15-8.12H5.96l2.15,8.12Z"/>
</svg>