<?xml version="1.0" encoding="UTF-8"?>
<svg id="Layer_1" xmlns="http://www.w3.org/2000/svg" version="1.1" viewBox="0 0 205.57 74.75">
  <!-- Generator: Adobe Illustrator 30.3.0, SVG Export Plug-In . SVG Version: 2.1.3 Build 182)  -->
  <defs>
    <style>
      .st0 {
        fill: #daa520;
      }

      .st1 {
        fill: #fff;
      }
    </style>
  </defs>
  <g>
    <g>
      <path class="st1" d="M45.86,56.49c1-1.13,1.82-2.32,2.69-3.58.25,2.66-.44,5.14-1.55,7.41l-1.19-1.31c-.64,1.5-1.15,2.74-1.94,4.05-.04-.66.29-1.09.08-1.72-.83,2.3-2.07,4.28-3.92,5.91.17-.83.48-1.46.3-2.36-1.05,1.87-2.35,3.43-4.01,4.87.07-.7.15-1.3.08-2.09-1.06,1.6-2.23,2.85-3.75,3.96-1.19.87-2.2,1.91-2.89,3.13-.69-1.17-1.63-2.09-2.71-2.91-1.56-1.19-2.83-2.48-3.92-4.14-.05.76,0,1.34.04,2.04-1.61-1.39-2.91-2.9-3.97-4.79-.13.84.12,1.57.32,2.39-1.93-1.68-3.19-3.75-4.01-6.08-.02.6.07,1.08.14,1.76-.81-1.22-1.35-2.47-1.96-3.94-.46.39-.85.79-1.21,1.32-1.08-2.28-1.78-4.83-1.54-7.5l2.7,3.66c-.3-1.13-.64-2.11-.8-3.26,1.42,2.24,2.83,4.35,4.52,6.46l-.88-2.81c1.18,1.11,1.95,2.38,2.78,3.72.96,1.55,2.09,2.9,3.42,4.25l-1.64-3.85c1.94,1.39,3.15,3.22,4.58,5.04-.29-1.12-.83-2.04-1.37-3.09l2.14,1.78c1.68,1.39,2.77,3.14,3.34,5.3,1.18-4.03,2.68-4.59,5.49-7.05-.49.99-1.03,1.85-1.27,2.96,1.43-1.76,2.57-3.56,4.46-4.89l-1.57,3.81c1.39-1.41,2.58-2.9,3.61-4.57.74-1.19,1.42-2.28,2.5-3.27l-.87,2.76c1.68-2.1,3.13-4.24,4.58-6.49-.13,1.09-.51,1.96-.79,3.14Z"/>
      <path class="st1" d="M26.07,49.89c.89,1,1.86,1.7,3.18,2.1v1.44c-.95.56-1.84,1.24-2.94,1.33-2.71.24-4.83-1.84-5.07-4.48-.11-1.24-1.04-2.11-2-2.78,2.62-.14,3.09,3.25,3.57,4.83.36,1.19,2.91,2.59,4.05,1.48-1.36.14-3.02-.26-3.52-1.62-.41-1.12-.52-2.33-1.08-3.4-.84-1.6-2.46-2.41-4.26-2.05-.76.15-1.46.37-2.28.58-.84-.81-1.53-1.66-2.19-2.6.85.24,1.61.54,2.34-.06-.95-1.99-1.11-3.47-1.44-5.83,1.67,1.16,3.25,2.09,5.1,2.69-.01.48-.08,1.04.11,1.41.71,1.41,2.49,1.23,3.79,1.23.41.29.88.9,1.15,1.44.16-.16.53-.45.72-.7,1.11-1.48,2.73-2.33,4.53-2.32s3.33.95,4.49,2.37l.58.71c.24-.48.71-1.35,1.21-1.49.71-.11,1.42.06,2.12-.09,1.21-.26,2.02-1.15,1.79-2.54,1.21-.42,2.31-.98,3.38-1.67l1.63-1.05c-.11,1.18-.25,2.19-.47,3.34-.25,1.32-.97,2.13-.85,2.53.17.55,1.75.14,2.22.04-.62.82-1.18,1.52-1.83,2.28-.61.71-1.44-.52-3.82-.33-3.52.27-3.58,4.14-4.09,5.48s-2.24,1.76-3.49,1.64c.9,1.06,3.6-.28,4.01-1.49.49-1.45.9-4.92,3.48-4.82-1.13.77-1.81,1.83-2.02,3.2-.38,2.49-2.6,4.37-5.16,4.02-.98-.13-1.8-.75-2.73-1.27l-.08-1.43c1.25-.42,2.27-1.11,3.15-2.13l.38-.62c.71-.76.99-1.94.59-2.92-.99-2.4-4.61-2.48-6.73-1.97-1.04.25-1.97.95-2.38,1.94-.34.82-.2,1.8.24,2.55l.63,1ZM24.33,50.97c-.42-.74-.73-1.33-1.04-2.04-.94-2.13-2.58-4.07-5-4.6,1.76.91,3.34,2.16,4.26,4.05l1.04,2.13c.14.28.49.52.74.46ZM36.21,49.85c1.24-2.68,2.7-4.45,5.15-5.5-1.24.04-2.16.77-2.99,1.51-1.77,1.55-2.01,3.11-3.22,5.06.57-.08.83-.56,1.06-1.07Z"/>
      <path class="st1" d="M38.86,17.66c-.25,2.31-2.65,5.38-4.88,5.92-.89-1.68-2.47-2.7-4.28-2.68-1.79.02-3.38,1.02-4.23,2.68-2.35-.63-4.66-3.71-4.81-5.99l2.51-2.38-.78.03-.77-1.92,1.09-.76c.59.9,1.21,1.56,2.11,2.09,2.58-.56,3.75.38,6.08,0,1.27-.2,2.49-.23,3.76-.03.9-.53,1.53-1.18,2.14-2.01l1.02.72-.7,1.91-.83-.07,2.56,2.48Z"/>
      <path class="st1" d="M10.74,17.5l-.84-1.95c-.42,3,1.14,4.49.76,7.35-3.07-4.03-2.1-10.48-1.54-15.14-.9,2.28-1.18,6.19-1.21,8.74-.04,2.94.96,4.96,2.25,7.45.19.36.29.72.2,1.16l-2.09-1.26c-.76-1.17-.95-2.53-1.39-3.83.01,1.19.32,2.26.65,3.41-.93.52-1.76-5.01-1.82-5.66l.48-.55c.05-4.69,1.19-11.98,3.64-15.97.38-.61.96-1.09,1.53-1.2.76-.15,1.5,0,2.11.51,2.71,2.21,5.1,6.55,7.09,9.57-.28.11-.65.16-.99.11-1.44-2.52-2.93-5-5.15-6.92,1.72,2.32,3.27,4.61,4.45,7.18l-1.15.53c-.84-1.16-1.8-2.13-2.86-3.12,1,.25,1.72.9,2.61,1.47-1.36-1.96-3.64-4.86-5.59-6.02-1.38-.82-2.46,2.31-2.43,3.35l.92-1.47c-.42,2.73-1.06,5.94-.4,8.66l.64-2.12.12,5.7Z"/>
      <path class="st1" d="M49.56,15.37l-.8,2.06.13-5.63.68,2.12c.46-2.99.04-5.89-.55-8.91l1.09,1.92c.02-.91-1.09-3.9-2.11-3.66-.67.16-1.25.57-1.73,1.03-1.19,1.15-3.54,3.75-4.35,5.25.91-.64,1.68-1.29,2.69-1.59-1.08.98-2.02,1.94-2.87,3.08l-1.12-.52c1.21-2.73,2.83-5.18,4.72-7.53-2.31,2.02-3.92,4.59-5.43,7.25-.31.04-.67,0-1.05-.06l3.02-4.69c1.1-1.71,2.31-3.27,3.78-4.66.82-.77,2.02-1.1,3.02-.54.57.32.99.97,1.29,1.56,2.19,4.36,3.11,10.05,3.25,14.92.01.41.18.73.5,1,.04.47-.86,6.24-1.77,5.72.24-1.04.59-1.98.55-3.06-.39,1.16-.69,2.32-1.28,3.43l-2.12,1.28c-.1-.39-.04-.78.16-1.12,2.2-3.75,2.53-6.18,2.12-10.53-.17-1.94-.35-3.79-1.02-5.59.37,2.69.57,5.2.55,7.87-.01,1.72-.24,3.27-.88,4.86-.34.84-.62,1.66-1.28,2.32-.31-2.93,1.25-4.32.79-7.56Z"/>
      <path class="st1" d="M20.16,12.98c-1.33,1.06-1.28,4.13-.98,5.63.48,2.41,2.39,2.85.41,4.78-2.46-3.59-3.3-8.01-5.87-11.43.74,1.63,1.48,3.07,2.14,4.83.82,2.18,2.04,4.8,3.22,6.7.08.13-.07.38-.13.35-.09-.03-.32-.14-.39-.25-2.24-3.68-2.93-6.69-4.81-10.4-.61-1.21-1.36-2.25-2.32-3.32,2.41.09,5.17,1.33,6.68,3.42.43-.52.09-.96-.38-1.25,1.47-1.16,3.6-1.54,5.2-.33-3.69,1.35-3.82,5.6-2.19,8.53,0,.24-.05.48-.18.66-1.4-2.55-1.91-5.26-.41-7.92Z"/>
      <path class="st1" d="M38.94,21.61c1.17-1.85,1.8-3.81,1.5-5.91-.19-1.35-.66-2.75-1.88-3.47,2.38,2.47,2.02,5.62.37,8.61l-.27-.38c1.64-2.99,1.68-7.32-2.12-8.77,1.63-1.23,3.77-.85,5.24.35-.5.26-.87.85-.41,1.24,1.35-2.03,4.29-3.32,6.67-3.41-1.18,1.35-2.18,2.78-2.9,4.47l-2.17,5.16c-.65,1.47-1.34,2.78-2.15,4.17-.09.15-.58.11-.55-.05,1.29-2.07,2.31-4.2,3.17-6.46.67-1.76,1.42-3.33,2.23-5.08-2.56,3.38-3.36,7.8-5.88,11.41-.44-.56-.66-1.12-.86-1.87Z"/>
      <path class="st1" d="M42.27,32.06c-1.96-.53-3.91.63-5.55,1.67l-2.99,1.91c-.71.45-1.45.43-2.24.11-.26-.11-.35-.4-.23-.69,1.31.97,2.74-.09,3.79-.95l-1.77.85c-.57.27-1.57.23-1.89-.37.21-1.58,1.51-2.68,2.95-3.22,3.04-1.13,5.36-2.44,7.08-5.41,1.29.98,2.42,2.09,3.26,3.51l-1.15,2.08c-1.62-.9-3.44-.4-4.77.25,1.49-.3,2.73-.66,4.05-.11.38.16.52.34.69.7.83,1.7,1.79,3.38,1.73,5.34-.47-1.63-1.13-5.17-2.96-5.66Z"/>
      <path class="st1" d="M22.35,33.47c-1-.65-1.96-1.14-3.07-1.44-1.02-.27-2.45-.2-3.13.69-1.1,1.44-1.33,3.19-1.91,4.93,0-1.68.76-3.26,1.55-4.78l.43-.83c.67-.6,1.76-.78,2.66-.6l1.99.39c-1.75-.85-3.2-1.09-4.9-.3l-1.12-2.02c.82-1.36,1.91-2.57,3.21-3.51,1.79,2.97,3.87,4.14,6.95,5.3,1.41.53,2.84,1.58,3.08,3.19-.16.72-1.39.76-1.96.47l-1.9-.94c1.08.85,2.56,2.16,3.97.96l.07.44c.03.21-1.26,1.08-2.72.13l-3.18-2.06Z"/>
      <path class="st1" d="M42.4,53.87l-2.06,2.25-.23-.33c-.05-.08-.33-.05-.41,0l-4.42,2.77c-.47.29-1.05.24-1.43-.13l-1.41-1.38c-1.71-.56-3.6-.64-5.31-.05l-1.81,1.65c-.38.35-1.07.04-1.45-.22-.87-.6-3.65-2.49-4.44-2.7-.09-.02-.18.19-.3.4l-2.11-2.24c.43-.64.48-1.16.25-1.79-.46-1.27-.86-2.61-1.15-3.85-.04-.16.44-.36.48-.23.6,2.05,1.5,3.96,2.72,5.71,1,1.43,2.29,2.43,3.88,3.1l1.01.88c.42.37.94.14,1.2-.26.51-.79,1.19-1.27,2.11-1.43,1.58-.28,3.17-.26,4.73.11,1.93.46,1.74,2.43,2.95,1.6.35-.24.79-.74,1.16-.92,1.3-.63,2.32-1.23,3.27-2.4,1.4-1.73,2.62-4.24,3.16-6.27.03-.11.32-.15.37-.09.06.09.16.35.12.48l-1.2,3.85c-.14.45.06.94.3,1.49Z"/>
      <path class="st1" d="M49.72,32.25l2.29-1.57c-2.44.91-4.55,2.47-6.36,4.43-.3-.86-.63-1.62-1.08-2.48,1.24-2.46,3.82-4.72,6.13-6.17-.57,1.16-.49,2.35.4,3.19.8.75,2.05.93,3.05.22.87-.62,1.36-1.82.88-2.94-.45-1.04-1.51-1.62-2.73-1.5l1.81-.9,2.33,4.99c-3.51,1.17-6.77,2.85-9.41,5.37l-1.13,1.07c-.37-.63,3.17-3.26,3.83-3.71Z"/>
      <path class="st1" d="M13.82,35.07c-1.77-1.9-3.9-3.56-6.34-4.41,2.07,1.4,3.99,2.63,5.62,4.39.26.28.55.54.54.95-2.92-2.97-6.53-5.13-10.59-6.51.72-1.72,1.49-3.29,2.37-4.99l1.83.93c-1.42-.17-2.68.66-2.92,2.02s.69,2.68,2.16,2.84c.94.1,1.79-.44,2.25-1.12.55-.84.53-1.75.07-2.75,2.45,1.58,4.65,3.57,6.11,6.17l-1.1,2.48Z"/>
      <path class="st1" d="M33.16,31.1c-1.81.57-2.78,2.55-2.73,4.43-.44.08-.91.09-1.41.1.27-1.86-1.12-4.06-2.68-4.52-1.13-.33-2.17-.59-3.25-1.09-2.12-.97-3.82-2.47-4.99-4.53-1.34.81-2.61,2.27-3.4,3.44-.07.1-.34.05-.33-.01.16-.99,2.78-3.55,3.89-4.23,1.28,2.55,3.35,4.43,6.08,5.36,3.33,1.14,7,1.19,10.38.15,2.91-.9,5.12-2.83,6.5-5.52,1.17.72,3.72,3.25,3.91,4.23.01.07-.21.18-.28.07-.8-1.19-2.15-2.77-3.51-3.49-.99,1.99-2.66,3.36-4.57,4.34-1.19.61-2.39.87-3.61,1.26Z"/>
      <path class="st1" d="M39.18,56.77c-2.6,3.12-2.47,2.48-5.32,4.18-.8.48-.67-1.26-2.4-1.51-1.16-.17-2.33-.17-3.49,0-1.75.26-1.49,2.06-2.43,1.45-.74-.47-1.83-.9-2.64-1.51-1.01-.75-1.78-1.72-2.66-2.68,1.29.67,2.4,1.43,3.55,2.2,1.83,1.23,2.7-1.07,3.74-1.47,1.5-.58,3.15-.43,4.64.03l1.43,1.35c.64.6,1.44.53,2.12.08,1.13-.75,2.19-1.47,3.46-2.13Z"/>
      <path class="st1" d="M53.28,54.05c1.54-.58,4.43-2.32,5.39-3.65l-4.2,2.63c.23-.85.26-1.61.03-2.45l-.4-1.4,3.12-1.82,1.57,2.83c.03-1.25-1.14-2.01-1.1-3.37l1.8,3.46c-1.95,2.13-6.79,4.84-9.63,5.3,1.16-.66,2.28-.98,3.17-1.86,1.7-1.68.35-2.96.47-4.43.6.81.71,1.81.71,2.73,0,.77-.47,1.32-.94,2.04Z"/>
      <path class="st1" d="M6.21,54.11c-.36-.68-.91-1.2-.91-1.99,0-.94.12-1.97.69-2.77.13.63-.15,1.14-.28,1.68-.29,1.19.12,2.37,1.18,3.04.71.8,1.84.75,2.7,1.58C6.05,54.68,2.75,52.82,0,50.29c.61-1.2,1.12-2.36,1.84-3.44-.06,1.37-1.16,2.11-1.18,3.42l1.59-2.92,3.18,1.87c-.46,1.47-.82,2.31-.35,3.87l-4.37-2.8c1.48,1.7,3.39,2.82,5.51,3.81Z"/>
      <path class="st1" d="M33.59,62.32c-1.34,1.5-4.91,1.31-6.65.75-.38-.12-.79-.54-1.11-.75,2.15.02.68-1.31,2.96-1.73-.92-.25-1.48.36-1.95,1.09-.38.6-1.4.37-1.86-.03l-1.16-.99,1.75.88c1.37.69.99-1.28,2.74-1.46,4.98-.5,3.8,1.11,4.87,1.54.63.25,1.56-.68,2.25-.81-.44.48-.86.84-1.44,1.18-.31.18-1.18.04-1.35-.26-.44-.78-1.04-1.41-2.03-1.15,2.33.48.93,1.8,2.98,1.74Z"/>
      <path class="st1" d="M5.29,24.22c-1.18,1.71-2.01,3.49-2.7,5.49,3.35,1.33,6.42,2.94,9.13,5.21.69.57,1.39,1.09,1.77,1.98-1.78-1.55-3.59-2.9-5.69-4.02-1.95-1.1-3.9-1.97-6.07-2.67.93-2.45,1.96-4.66,3.29-6.89,3.71,1.2,6.89,3.59,9.19,6.72,1.38,1.87,1.01,2.69.74,2.14-.89-1.83-2.65-3.98-4.49-5.16-1.62-1.26-3.18-2.18-5.17-2.79Z"/>
      <path class="st1" d="M7.07,44.21l-1.17,2.9-3.83-2.01c1.18,1.2,2.61,1.81,4.06,2.64.64-1.17.85-2.44,1.7-3.62l-1.37,4.11c-1.89-.83-3.67-1.87-5.29-3.22l2.33-3.68c-.26,1.21-1.24,1.94-1.51,3.24l1.88-2.85,2.56,1.72c-.31.99-.94,1.99-1.05,3.16.32.26,1.39-3.63,1.72-2.78.03.07.02.3-.02.4Z"/>
      <path class="st1" d="M56.87,29.76c-.62-1.97-1.52-3.77-2.63-5.54-1.88.53-3.45,1.51-5.02,2.62-2.04,1.45-3.63,3.2-4.8,5.46-.65-.69,2.27-4.16,2.93-4.68,2.01-1.95,4.46-3.42,7.14-4.32,1.34,2.27,2.37,4.54,3.27,6.93-2.28.67-4.26,1.56-6.23,2.72-2.03,1.12-3.8,2.44-5.55,3.95.72-1.43,2.04-2.12,3.15-3.07,2.35-1.68,4.82-2.96,7.75-4.08Z"/>
      <path class="st1" d="M53.57,47.09l-1.21-3.07c-.04-.1.19-.27.33-.3.47.94.77,1.94,1.44,2.83-.18-1.15-.69-2.04-1.05-3.12l2.55-1.67,1.91,2.89c-.18-1.31-1.24-1.99-1.51-3.27.78,1.1,1.42,2.14,2.14,3.29.11.17.03.59-.15.71-1.57,1.09-3.12,2.01-4.93,2.89l-1.38-4.13c.8,1.1.98,2.3,1.62,3.57,1.39-.73,2.8-1.36,4-2.49l-3.75,1.85Z"/>
      <path class="st1" d="M11.58,26.08l3.31-3.5-.67-.3c.83-.28,1.57-.67,2.06-1.38l1.64,3.07c-1.66,1.12-3.08,2.51-4.18,4.18l-2.16-2.07Z"/>
      <path class="st1" d="M47.86,26.07l-2.11,2.06c-1.12-1.66-2.54-3.1-4.23-4.17l1.68-3.06c.54.84,1.31,1.19,2.28,1.34l-.85.35,3.24,3.48Z"/>
      <path class="st1" d="M30.23,29.54c-1.35.15-2.43-.26-3.27-1.06-.87-.82-1.24-1.97-1.13-3.27.15-1.92,1.78-3.45,3.65-3.57,1.96-.13,3.66,1.17,4.12,3.2.5,2.15-1.08,4.44-3.37,4.7ZM26.42,25.13c.21-1.16.82-1.88,1.73-2.54-.69-.11-2.25,1.98-1.73,2.54ZM32.66,25.07c-.23-1.65-2.01-2.78-3.57-2.39-1.65.41-2.62,1.99-2.21,3.68.38,1.61,1.96,2.52,3.5,2.17,1.58-.36,2.52-1.77,2.29-3.46ZM33.13,25c-.02-.91-.55-1.78-1.34-2.2.61.68.95,1.32,1.34,2.2ZM30.64,28.95c1.61-.17,2.72-1.81,2.46-3.24-.19,1.63-1.1,2.67-2.46,3.24ZM28.79,28.97c-1.44-.71-2.24-1.62-2.39-3.2-.21.27-.11.65-.04.99.38,1.04,1.25,2.14,2.42,2.22Z"/>
      <path class="st1" d="M32.66,29.29c.86-1.01,4.14-1.35,5.18-3.01-1.42.51-2.48,1.41-3.98,1.7.52-1.17.77-2.41.39-3.62l1.88-.94c.3,1.31,1.11,2.43,2.39,3.13-1.65,1.44-3.67,2.27-5.87,2.74Z"/>
      <path class="st1" d="M21.76,26.43c.2.61,3.01,1.94,3.79,2.1.48.16.85.36,1.16.73-2.15-.44-4.09-1.28-5.76-2.75,1.32-.63,2.19-1.72,2.41-3.05l1.83.87c-.28,1.21-.19,2.49.46,3.7-.75,0-3.61-1.72-3.74-1.71-.05,0-.16.07-.14.12Z"/>
      <path class="st1" d="M31.49,42.09c-1.18-.34-2.34-.31-3.5.03l.03-3.14c1.05-.5,2.36-.53,3.41,0l.06,3.1Z"/>
      <path class="st1" d="M51.04,39.98c.37-.08.75,1.54,1.33,1.96-.19-.81-.48-1.48-.81-2.27l2.5-1.52,1.37,1.99c.04-.98-.88-1.32-.97-2.3l1.53,2.33-4.01,2.51-1.04-2.35c-.03-.07.04-.32.09-.34Z"/>
      <path class="st1" d="M49.38,36.45c.22-.52,1.07,2.1,1.55,2.21-.12-.94-.6-1.61-1.04-2.54l2.74-1.5,1.36,1.94c-.01-.97-.88-1.27-.96-2.18l1.47,2.24-4.05,2.41c-.21-.83-1.22-2.23-1.07-2.59Z"/>
      <path class="st1" d="M7.15,42.01c.27-.24.82-1.48,1.16-2.03.04-.07.3.16.26.24l-1.05,2.38c-1.34-.7-2.65-1.54-3.97-2.45.51-.81.88-1.54,1.49-2.22l-1.07,2.07.18.07,1.23-1.91,2.52,1.53c-.22.75-.66,1.31-.75,2.33Z"/>
      <path class="st1" d="M35.47,43.58l-.73.97c-.76-.96-1.6-1.72-2.77-2.29l-.05-3.08,3.33,1.96c-.07.31-.32.86-.23,1.13l.45,1.31Z"/>
      <path class="st1" d="M24.76,44.55c-.21-.24-.71-.69-.69-.96.04-.49.31-.97.49-1.41l-.37-.95,3.36-2.01c.07,1.07.02,2.01-.07,3.1-1.14.52-2,1.24-2.72,2.24Z"/>
      <path class="st1" d="M41.76,38.52c-1.39,1.11-3.01,1.66-4.67.94,2.06-.35,3.42-.89,4.43-3.01l1.66-.36c.2.75.49,1.66,0,2.33-.71.96-1.87,1.5-3.04,1.76.6-.56,1.27-.94,1.62-1.64Z"/>
      <path class="st1" d="M22.29,39.48c-1.28.84-3.23.05-4.51-.97.27.74,1.01,1.06,1.6,1.67-1.14-.27-2.29-.77-3.02-1.68-.54-.66-.25-1.77-.07-2.44l1.65.38c.85,1.74,2.38,2.78,4.36,3.03Z"/>
      <path class="st1" d="M10.14,36.72l-1.11,2.28-3.96-2.39c.39-.69.72-1.2,1.15-1.79-.13.75-.72,1.07-.7,1.83l1.39-2.04,2.69,1.48-1.16,2.6c.67-.02.98-1.86,1.65-2.27.06-.04.11.22.06.31Z"/>
      <path class="st1" d="M12.31,49.09l1.93,2.48c-1.64-.57-2.87-1.56-4-2.79l.97-.81-1.19-.82c.59-.49,1.07-.81,1.79-1.23l-.34,1.53,1.13.03.93,2.12c-.56-.16-.62-.67-1.23-.52Z"/>
      <path class="st1" d="M40.38,24.54c-.34.46-.72.96-1.2,1.5-1.46-.41-2.54-1.88-2.3-3.42l1.29-1.44c.23,1.37.65,2.76,2.21,3.36Z"/>
      <path class="st1" d="M45.31,51.54c.63-.97,1.45-1.48,1.78-2.65l-1.03.61.77-2.01,1.19-.02-.34-1.56,1.74,1.23-1.19.86.95.8c-1.07,1.27-2.34,2.25-3.89,2.74Z"/>
      <path class="st1" d="M22.55,22.66c.57,1.22-.78,2.89-2.18,3.4l-1.29-1.52c1.43-.61,2.09-1.76,2.2-3.32.43.43,1.03.93,1.27,1.44ZM21.29,24.93c-.06-.31-.55-.71-.81-.76-.24-.04-.69.52-.53.71.19.22.44.43.62.49.23.08.78-.12.72-.45Z"/>
      <path class="st1" d="M23.3,43.56c-.83.09-1.77.18-2.48-.14-.74-.34-1.1-.98-.74-1.77,1.12.27,2.27.33,3.38-.12.28.11.32.61.22.89l-.38,1.14Z"/>
      <path class="st1" d="M37.99,43.63l-1.79-.06-.41-1.25c-.06-.2.04-.6.16-.83,1.14.54,2.25.44,3.42.16.38.52.15,1.29-.44,1.61-.24.13-.66.37-.94.36Z"/>
      <path class="st1" d="M51.79,28.87c-.1-.06-.43-.03-.48,0l-.22-1.12c-.17-.85.69-1.62,1.37-1.7.94-.11,1.77.35,2.04,1.26.22.72.03,1.49-.55,1.94-.54.42-1.28.5-1.95.23l.65-.12-.87-.48ZM52.65,26.54c-.77.12-1.16.79-1,1.52.11.51.73.94,1.41.83.53-.09,1.05-.71.93-1.37-.1-.56-.63-1.09-1.35-.98Z"/>
      <path class="st1" d="M8.17,28.31s-.84,1.51-2.46.65c-.09,0-.36.07-.4,0-.56-.77-.46-1.92.35-2.6.58-.49,1.5-.49,2.16.01.61.47.93,1.44.54,2.13l-.17-.2ZM6.54,26.54c-.73.09-1.14.72-1.04,1.4s.69,1.07,1.4.94c.61-.1,1.11-.67.96-1.39-.11-.54-.68-1.04-1.32-.95Z"/>
      <path class="st1" d="M32.33,38.67c-1.93-1.08-4.08-.87-5.82.41-1,.55-1.86,1.21-2.98,1.57l3.36-2.24c1.79-1.19,3.96-1.17,5.74.02.98.65,1.92,1.24,2.86,1.98-1.16-.46-2.06-1.13-3.16-1.75Z"/>
      <path class="st1" d="M27.21,37.18c-.73.7-1.86.69-2.73.03l-2.8-2.11c-.89-.64-1.8-1.09-2.8-1.52,1.33.15,2.48.78,3.58,1.51l2.66,1.76c.6.39,1.29.42,2.09.33Z"/>
      <path class="st1" d="M34.97,37.19c-.93.68-1.97.61-2.81-.04.83.18,1.62.13,2.32-.34l2.34-1.57c1.17-.78,2.4-1.49,3.82-1.64-.98.42-1.92.84-2.8,1.49l-2.88,2.11Z"/>
      <path class="st1" d="M13.07,42.07c-.53-.26-1.16-.7-1.2-1.3-.04-.54.3-2.12,1.06-2.36.27-.09.67.03.92.24-.63,1.09-.97,2.02-.78,3.43Z"/>
      <path class="st1" d="M42.39,48.11c-.77,2.64-2.53,6.84-5.45,7.74.45-.62,1.16-.87,1.67-1.43,1.62-1.81,2.73-4.04,3.36-6.38.03-.1.01-.31.08-.32h.24c.09-.02.13.3.11.39Z"/>
      <path class="st1" d="M22.53,55.83c-2.9-.89-4.71-5.18-5.43-7.77-.04-.14.12-.39.21-.4s.17.17.21.32c.55,2.23,1.59,4.27,3.03,6.06.56.69,1.32,1.09,1.98,1.79Z"/>
      <path class="st1" d="M47.52,40.95c-.17.53-.79.9-1.2,1.18.36-1.31-.05-2.43-.68-3.47.23-.45,1.03-.46,1.3.02.34.61.84,1.46.58,2.28Z"/>
      <path class="st1" d="M15.17,44.57c-1.31-.77-2.51-3.84-1.23-5.08l.54,2.91.68,2.18Z"/>
      <path class="st1" d="M21.43,35.82c-2.9-1.02-3.42.73-4.74-1.33.96-.37,1.83-.06,2.73.18.69.35,1.32.68,2.01,1.15Z"/>
      <path class="st1" d="M44.31,44.54c.32-.98.66-1.79.82-2.7l.44-2.37c.45.53.54,1.05.56,1.71-.25,1.24-.62,2.56-1.81,3.36Z"/>
      <path class="st1" d="M42.8,34.41c-1.02,2.01-1.99.55-4.56,1.28,1.34-.86,2.84-1.66,4.56-1.28Z"/>
      <path class="st1" d="M29.83,45.98c-1.02,0-1.87-.09-2.95.03,1.61-.91,3.82-1.06,5.62-.04h-2.67Z"/>
      <path class="st1" d="M37.16,38.4l-1.49-.05c.92-.88,1.92-1.54,3.21-1.91-.12,1.02-.77,1.7-1.72,1.96Z"/>
      <path class="st1" d="M23.79,38.35c-1.15.39-3.01-.14-3.14-1.9,1.2.38,2.12.99,3.14,1.9Z"/>
      <path class="st1" d="M16.66,52.06c.17.47.16.94-.11,1.27-.6-.57-.8-1.2-1-1.9l-.59-2.1,1.12,1.08.58,1.64Z"/>
      <path class="st1" d="M42.94,53.32c-.24-.35-.31-.72-.19-1.06l.73-2.05.99-.86-.88,3.12c-.07.22-.41.57-.66.86Z"/>
      <path class="st1" d="M24.69,55.31c-.22.58-.27,1.09-.22,1.67-.75-.52-1.11-1.37-1.08-2.19l1.3.52Z"/>
      <path class="st1" d="M35.06,56.91c.06-.51,0-1.05-.23-1.58l1.31-.55c.02.85-.37,1.67-1.08,2.14Z"/>
      <path class="st1" d="M15.8,49.35c-1.2-1.11-1.14-.79-1.54-2.67,1.22,1.31,1.18.71,1.54,2.67Z"/>
      <path class="st1" d="M21.54,15.45c-.02.49-.63.86-.98,1.14-.08-.9.14-1.73.54-2.49.19.42.46.86.44,1.35Z"/>
      <path class="st1" d="M38.9,16.56c-.33-.23-.91-.63-.95-1.03-.05-.45.23-.97.44-1.34.46.77.56,1.52.51,2.37Z"/>
      <path class="st1" d="M43.73,49.21c.11-.46.12-1.03.32-1.23l1.1-1.19c-.08.47-.2,1.09-.41,1.5l-1.01.92Z"/>
      <path class="st1" d="M45.3,44.26c.68-1.04.47-1.2,1.63-1.76l-.38,1.3c-.41.19-.73.32-1.25.46Z"/>
      <path class="st1" d="M14.15,44.3c-1.38-.33-1.19-.57-1.65-1.84,1.16.55.92.68,1.65,1.84Z"/>
      <path class="st1" d="M50.32,40.4c.27.28,1.21,2.54,1.22,2.6.02.08-.34.1-.37,0-.24-.75-.84-1.72-.85-2.61Z"/>
      <path class="st1" d="M14.13,19.44l.76-.36c.16-.08.3-.3.41-.55l.49,1.36-1.66-.45Z"/>
      <path class="st1" d="M9.22,40.46c.06.21-.94,2.65-1,2.61l-.29-.14c-.08-.04.06-.23.13-.33.37-.73.66-1.39,1.16-2.14Z"/>
      <polygon class="st1" points="45.39 19.45 43.68 19.85 44.1 18.84 45.39 19.45"/>
      <path class="st1" d="M50.08,39.22l-.16.12c-.15.12-1.25-2.34-1.18-2.61l1.34,2.49Z"/>
      <path class="st1" d="M9.79,39.15c-.04.09-.38.15-.38.11l.89-1.75c.13-.25.25-.51.49-.62l-1.01,2.26Z"/>
      <path class="st1" d="M52.56,27.05c.34-.1.79.07.91.33.17.38.02.82-.31.95-.37.15-.86.07-.97-.27-.12-.37-.05-.88.37-1.01Z"/>
      <path class="st1" d="M6.41,27.04c.31-.13.8.05.92.32.16.35-.02.82-.33.97-.35.17-.84.06-.98-.28-.15-.35-.01-.84.39-1.01Z"/>
      <path class="st1" d="M28.87,26.25h1.5c.11-.75.68-1.36,1.41-1.52-.02-.05-.04-.1-.06-.14-.44-.92-1.42-1.4-2.41-1.18-.76.17-1.37.7-1.59,1.44.62.19,1.08.74,1.15,1.4Z"/>
    </g>
    <g>
      <path class="st1" d="M101.43,62.84c-1.06-1.26-12.22-15.61-17.73-23.45v1.26c0,5.11.2,19.99.33,21.25h-15.48c.07-1.93.27-13.15.27-20.72v-7.04c0-5.78-.27-19.2-.27-20.72h15.48c-.07,1.06-.33,14.28-.33,20.06v1.93c5.05-6.51,16.47-20.79,17.87-22.45l11.03,9.7c-2.52,2.66-10.49,10.69-14.08,14.48,2.39,2.66,11.89,12.62,14.61,15.48l-11.69,10.23Z"/>
      <path class="st1" d="M136.5,41.18c0,6.64.2,18.53.27,20.06h-15.41c.13-2.92.2-18.47.2-20.19v-7.17c0-1.13-.2-18.2-.2-19.79h15.41c-.07,1.2-.27,11.96-.27,19.93v7.17Z"/>
      <path class="st1" d="M146.21,61.24c.4-4.72,1.99-38.72,2.66-47.56l.66-.4c9.43,6.91,30.75,23.05,33.08,24.78,0-3.65-.2-21.45-.13-24.31l13.55.33c-.73,9.56-2.39,38.66-2.79,48.16l-.66.33c-7.97-5.18-31.95-24.18-32.94-24.97,0,2.72.07,21.92.13,24.11l-13.55-.46Z"/>
    </g>
    <g>
      <path class="st1" d="M201.18,11.45v1.56h2.46v.37h-5.29v-.37h2.4v-1.56h-2.13v-.37h2.13v-.85h-1.31v-.35c-.33.26-.68.49-1.04.69-.06-.09-.17-.24-.26-.32,1.07-.57,2.11-1.54,2.6-2.36l.6.04s-.06.08-.12.09c.59.82,1.69,1.7,2.63,2.16-.1.1-.2.24-.27.36-.95-.52-2.04-1.41-2.61-2.22-.32.49-.87,1.05-1.49,1.54h3.07v.37h-1.36v.85h2.18v.37h-2.18ZM199.74,12.91c-.08-.31-.32-.79-.57-1.15l.34-.13c.26.34.51.82.6,1.13l-.36.15ZM202.87,11.81s-.07.05-.13.05c-.18.32-.47.77-.7,1.06l-.3-.15c.23-.3.52-.8.68-1.16l.46.2Z"/>
      <path class="st1" d="M201,15.54c-2.52,0-4.56-2.05-4.56-4.56s2.05-4.56,4.56-4.56,4.56,2.05,4.56,4.56-2.05,4.56-4.56,4.56ZM201,6.91c-2.24,0-4.07,1.82-4.07,4.07s1.82,4.07,4.07,4.07,4.07-1.82,4.07-4.07-1.82-4.07-4.07-4.07Z"/>
    </g>
  </g>
  <g>
    <path class="st0" d="M76.75,28.96c-.1-.02-.24-.08-.44-.18-.2-.1-.4-.21-.61-.33-.21-.13-.4-.25-.58-.36-.18-.1-.31-.17-.38-.21-.51-.25-.77-.67-.77-1.28,0-.76.1-1.59.3-2.5.2-.91.46-1.82.78-2.73.32-.91.69-1.79,1.11-2.63.42-.84.84-1.58,1.28-2.2.13-.21.28-.42.45-.64.17-.22.33-.43.48-.63.15-.2.29-.36.41-.5.12-.13.19-.2.21-.2.02-.02.06.02.11.13.06.1.13.23.23.38.13.25.21.41.23.5.02.09.02.22,0,.41-.02.11-.03.23-.04.36,0,.12-.02.21-.04.27,0,.06,0,.16-.03.3-.02.14-.05.28-.09.41-.04.15-.07.31-.1.47-.03.16-.05.29-.07.38-.02.1-.04.22-.06.37-.02.15-.05.28-.09.4-.04.11-.08.26-.11.43-.04.17-.08.32-.11.45-.02.13-.04.26-.07.38-.03.12-.05.2-.07.24-.04.04-.06.09-.07.16,0,.07-.02.13-.04.18,0,.06-.01.14-.04.26s-.06.23-.1.34c-.09.23-.14.39-.14.48,0,.08-.02.17-.06.28-.02.06-.05.17-.1.34-.05.17-.09.36-.13.57-.04.21-.09.4-.14.58-.06.18-.1.31-.14.38-.06.13-.09.42-.09.85,0,.28,0,.47.03.55.02.09.05.15.09.18.09.06.18.09.26.09.04,0,.11-.04.23-.11.11-.08.25-.17.41-.28.16-.11.33-.24.51-.38.18-.14.36-.28.53-.41.23-.21.47-.45.72-.74.26-.28.52-.6.78-.94.26-.34.52-.7.75-1.07.24-.37.45-.72.64-1.07.11-.21.25-.45.41-.72.16-.27.3-.51.41-.7.09-.19.2-.42.33-.68.12-.26.22-.48.3-.65.15-.45.35-.89.6-1.29.25-.41.47-.71.68-.89.21-.19.38-.31.51-.37.13-.06.36-.13.68-.23.36-.06.59-.12.68-.2.08-.02.11,0,.11.09s-.04.28-.13.61c-.09.33-.21.76-.37,1.28-.16.52-.34,1.11-.54,1.76-.2.65-.41,1.34-.64,2.06-1.17,3.62-1.87,6.01-2.1,7.19l-.09.48-.74-.03c-.28-.02-.51-.07-.68-.14-.17-.08-.32-.17-.44-.28-.12-.11-.23-.24-.31-.38-.09-.14-.18-.29-.27-.44l-.17.11s-.1.08-.17.13c-.08.05-.13.09-.17.13-.06.02-.15.07-.27.14-.12.08-.24.16-.36.26-.11.1-.24.19-.37.3-.13.1-.24.18-.31.21-.08.06-.14.11-.2.16-.06.05-.1.08-.11.1-.02.04-.08.08-.17.11-.1.04-.2.08-.31.11-.21.08-.49.11-.85.11-.28,0-.54-.03-.77-.09Z"/>
    <path class="st0" d="M77.22,47.46c-.06-.02-.17-.09-.33-.23-.16-.13-.32-.27-.47-.43-.21-.17-.43-.34-.67-.51-.24-.17-.5-.26-.78-.26-.08,0-.16-.02-.24-.07-.09-.05-.13-.09-.13-.13s.03-.06.09-.06c.04,0,.11-.04.21-.11.1-.08.21-.18.33-.31.13-.11.27-.22.4-.33.13-.1.23-.17.28-.21.21-.09.38-.18.53-.26.14-.08.27-.14.37-.2.1-.06.2-.12.3-.18.09-.07.2-.15.31-.24.15-.11.32-.26.5-.44.18-.18.35-.34.5-.47.68-.62,1.15-1.19,1.42-1.7.26-.51.42-.96.45-1.35.04-.39.01-.7-.07-.94-.09-.24-.15-.39-.18-.47-.04-.08-.09-.18-.16-.31-.07-.13-.15-.27-.24-.43-.09-.13-.22-.36-.38-.67-.16-.31-.32-.63-.48-.97-.16-.33-.3-.63-.43-.91-.12-.27-.18-.43-.18-.47,0-.09.11-.24.33-.43.22-.19.42-.31.61-.37.23-.08.54-.16.95-.24.41-.09.83-.17,1.28-.24.44-.08.88-.14,1.29-.18.42-.05.75-.07.99-.07.47,0,.9.07,1.29.21.39.14.74.39,1.07.75.15.15.29.28.41.4.12.11.23.19.33.23.17.08.26.14.26.2-.04.06-.17.11-.38.17-.22.06-.49.11-.82.17-.33.06-.71.11-1.12.17-.42.06-.83.11-1.25.17-.61.1-1.05.21-1.32.34-.27.13-.42.22-.44.26-.02.04.02.17.13.38.1.22.21.46.33.72.36.76.62,1.46.78,2.12.16.65.22,1.23.18,1.72-.02.13-.03.27-.03.4v.28c0,.06,0,.12-.03.2-.02.08-.04.13-.06.17-.13.4-.32.82-.57,1.28-.25.45-.53.89-.85,1.31-.32.42-.67.8-1.05,1.14-.38.34-.78.6-1.19.77-.1.04-.2.09-.33.16-.12.07-.23.13-.33.18-.15.1-.36.18-.61.27-.26.09-.43.13-.53.13-.02,0-.1-.04-.26-.11Z"/>
    <path class="st0" d="M79.63,63.59c-.32-.06-.72-.14-1.19-.26-.47-.11-.95-.26-1.42-.45-.47-.19-.9-.42-1.28-.68-.38-.26-.63-.58-.77-.94-.04-.08-.07-.14-.09-.18-.02-.05-.04-.09-.06-.13-.02-.04-.05-.15-.1-.34-.05-.19-.09-.39-.11-.61-.03-.22-.05-.42-.07-.61-.02-.19-.02-.29,0-.31.04,0,.06-.03.06-.09.02-.28.08-.63.18-1.04.1-.41.24-.8.41-1.18.44-.93.98-1.76,1.65-2.5.66-.74,1.4-1.38,2.22-1.93.81-.55,1.69-1.01,2.63-1.38.94-.37,1.89-.65,2.86-.84.21-.04.38-.07.51-.1.13-.03.25-.04.34-.04.13,0,.23.04.3.11.07.08.17.21.33.4.3.38.5.68.6.91.09.23.14.5.14.82,0,.81-.27,1.58-.8,2.3-.53.72-1.1,1.35-1.72,1.9-.62.55-1.23.98-1.83,1.28-.1.06-.24.13-.43.23-.19.1-.34.14-.45.14-.08,0-.13.02-.17.06-.02.04-.18.09-.48.14-.3.06-.62.1-.94.11-.27.04-.55.03-.87-.01s-.55-.11-.72-.18c-.28-.13-.4-.09-.34.11.04.08.04.11,0,.11-.02,0-.03.07-.04.2,0,.13,0,.28,0,.45,0,.17.02.35.04.53.02.18.04.32.06.41.06.21.13.41.23.61.09.2.27.3.54.3.4,0,.84-.09,1.34-.27.49-.18.99-.4,1.49-.67.5-.27.98-.54,1.43-.84.45-.29.83-.56,1.14-.81.57-.45.91-.68,1.02-.68.09,0,.17.1.23.28.02.1.07.2.14.31.08.11.16.22.26.31.23.25.37.44.44.6.07.15.1.36.1.62,0,.66-.22,1.21-.65,1.65-.19.17-.44.37-.75.6-.31.23-.56.39-.75.48-.11.08-.17.12-.17.14,0,.04-.03.06-.09.06-.04,0-.1.02-.2.07-.09.05-.22.1-.37.16-.28.15-.55.27-.8.34-.27.09-.57.18-.92.26-.35.08-.66.11-.92.11-.17,0-.27.02-.31.06s-.07.06-.09.06l-.23-.06c-.08-.02-.16-.04-.26-.06-.09-.02-.19-.04-.28-.06ZM80.29,55.21c.44-.21.8-.42,1.09-.62.29-.21.6-.46.92-.77.11-.11.25-.25.4-.41.15-.16.29-.32.41-.47.12-.15.23-.28.31-.38.09-.1.12-.17.1-.18-.04,0-.14.04-.31.11-.17.08-.36.17-.57.28-.21.11-.42.23-.62.36-.21.12-.38.23-.51.33-.15.11-.35.28-.6.5-.25.22-.47.43-.68.64-.68.66-.96.99-.82.99.06,0,.16-.03.3-.1.14-.07.34-.16.58-.27Z"/>
  </g>
</svg>