<?xml version="1.0" encoding="UTF-8"?>
<svg id="Layer_1" xmlns="http://www.w3.org/2000/svg" version="1.1" viewBox="0 0 796.2 40">
  <!-- Generator: Adobe Illustrator 30.3.0, SVG Export Plug-In . SVG Version: 2.1.3 Build 182)  -->
  <defs>
    <style>
      .st0, .st1 {
        fill: #bababa;
      }

      .st1 {
        fill-rule: evenodd;
      }
    </style>
  </defs>
  <g>
    <path class="st0" d="M130.5,22c-.07-.66-.12-1.32-.12-2l.12-2c.07-.68.18-1.34.31-2l.52-2c.22-.68.47-1.35.75-2l1.02-2c.41-.7.85-1.36,1.33-2,.2-.11,1.73-2,1.73-2,.69-.7,1.42-1.38,2.21-1.97v-.03h0c-3.34-2.51-7.5-4-12-4-11.05,0-20,8.95-20,20s8.95,20,20,20c4.51,0,8.67-1.49,12.02-4.01,0,0-.01,0-.02-.01l-2.22-1.97c-.62-.63-1.19-1.3-1.72-2l-1.33-2c-.38-.64-.72-1.31-1.02-2l-.75-2c-.21-.65-.38-1.32-.52-2l-.31-1.88"/>
    <path class="st0" d="M150.38,0c-4.49,0-8.62,1.5-11.96,4h-.04v.03c-.79.6-1.52,1.27-2.21,1.97h4.43c.62.63,1.18,1.3,1.71,2h-7.86c-.48.64-.93,1.3-1.33,2h10.53c.38.65.73,1.31,1.04,2h-12.58c-.29.65-.54,1.32-.75,2h14.09c.21.65.37,1.32.52,2h-15.13c-.13.66-.25,1.32-.31,2h15.76c.08.66.12,1.32.12,2h-16c0,.68.05,1.34.12,2h15.76c-.08.68-.19,1.34-.32,2h-15.13c.14.68.32,1.35.52,2h14.09c-.22.68-.47,1.35-.75,2h-12.58c.3.69.64,1.36,1.02,2h10.53c-.4.7-.85,1.36-1.34,2h-7.86c.53.7,1.11,1.37,1.72,2h4.43c-.7.71-1.42,1.38-2.21,1.97,0,0,.01,0,.02.01,3.34,2.51,7.48,4.01,11.98,4.01,11.05,0,20-8.96,20-20S161.43,0,150.38,0Z"/>
  </g>
  <g>
    <path class="st0" d="M648.88,34.47c-.56,0-1.01-.45-1.01-1.01V15.66c0-3.83,3.11-6.94,6.94-6.94h5.25c3.81.02,6.92,3.12,6.92,6.94v3.79c0,3.83-3.11,6.94-6.94,6.94h-7.42c-.56,0-1.01-.45-1.01-1.01s.45-1.01,1.01-1.01h7.42c2.71,0,4.92-2.2,4.92-4.92v-3.79c0-2.7-2.2-4.9-4.9-4.91h-5.25c-2.71,0-4.91,2.2-4.91,4.91v17.79c0,.56-.45,1.01-1.01,1.01ZM672.15,26.47c-.56,0-1.01-.45-1.01-1.01v-13.29c0-.78-.64-1.42-1.42-1.42h-2.28c-.56,0-1.01-.45-1.01-1.01s.45-1.01,1.01-1.01h2.28c1.9,0,3.45,1.55,3.45,3.45v13.29c0,.56-.45,1.01-1.01,1.01Z"/>
    <path class="st0" d="M671.66,7.68l-1.03-1.03c-.26-.26-.26-.67,0-.93l1.03-1.03c.26-.26.67-.26.93,0l1.03,1.03c.26.26.26.67,0,.93l-1.03,1.03c-.26.26-.67.26-.93,0h0Z"/>
    <path class="st0" d="M678.78,26.35h-2.26c-.56,0-1.01-.45-1.01-1.01s.45-1.01,1.01-1.01h2.26c.9,0,1.75-.35,2.38-.99l5.29-5.29c.22-.22.47-.39.73-.52-.26-.13-.51-.3-.73-.52l-5.29-5.29c-.64-.64-1.48-.99-2.38-.99h-2.26c-.56,0-1.01-.45-1.01-1.01s.45-1.01,1.01-1.01h2.26c1.44,0,2.8.56,3.82,1.58l5.29,5.29c.29.29.76.29,1.05,0l5.27-5.27c1.02-1.02,2.37-1.58,3.82-1.58h1.84c.56,0,1.01.45,1.01,1.01,0,.56-.45,1.01-1.01,1.01h-1.84c-.9,0-1.75.35-2.38.99l-5.27,5.27c-.22.22-.47.39-.73.52.26.13.51.3.73.52l5.27,5.27c.64.64,1.48.99,2.38.99h1.84c.56,0,1.01.45,1.01,1.01s-.45,1.01-1.01,1.01h-1.84c-1.44,0-2.8-.56-3.82-1.58l-5.27-5.27c-.29-.29-.76-.29-1.05,0l-5.29,5.29c-1.02,1.02-2.37,1.58-3.82,1.58Z"/>
    <path class="st0" d="M635.41,28.72c-1.13,0-2.2-.44-3-1.24l-4.34-4.34c-.3-.31-.84-.3-1.14,0l-4.35,4.35c-.8.8-1.87,1.24-3,1.24h-.85l5.49,5.49c1.72,1.72,4.5,1.72,6.21,0l5.51-5.51h-.52Z"/>
    <path class="st0" d="M619.58,13.38c1.13,0,2.2.44,3,1.24l4.35,4.35c.31.31.83.31,1.14,0l4.34-4.34c.8-.8,1.87-1.24,3-1.24h.52l-5.51-5.51c-1.72-1.72-4.5-1.72-6.21,0l-5.49,5.49h.85Z"/>
    <path class="st0" d="M640.49,17.95l-3.33-3.33c-.07.03-.15.05-.24.05h-1.51c-.78,0-1.55.32-2.1.87l-4.34,4.34c-.41.41-.94.61-1.47.61s-1.07-.2-1.47-.61l-4.35-4.35c-.55-.55-1.32-.87-2.1-.87h-1.86c-.08,0-.15-.02-.22-.05l-3.34,3.34c-1.72,1.72-1.72,4.5,0,6.21l3.34,3.34c.07-.03.14-.05.22-.05h1.86c.78,0,1.55-.32,2.1-.87l4.35-4.35c.79-.79,2.16-.79,2.94,0l4.34,4.34c.55.55,1.32.87,2.1.87h1.51c.08,0,.16.02.24.05l3.33-3.33c1.72-1.72,1.72-4.5,0-6.21h0Z"/>
    <path class="st0" d="M653.4,31.94c-.25,0-.53.06-.81.12v1.08c.2.07.42.11.63.11.54,0,.8-.18.8-.66,0-.45-.21-.65-.62-.65h0ZM652.4,33.96v-2.14h.15l.02.09c.25-.06.6-.14.85-.14.2,0,.39.03.56.16.19.15.25.4.25.66s-.09.54-.35.69c-.18.1-.42.14-.63.14s-.43-.03-.65-.1v.63h-.18Z"/>
    <path class="st0" d="M655.58,31.94c-.54,0-.79.17-.79.65s.24.67.79.67.78-.17.78-.65-.24-.67-.78-.67h0ZM656.28,33.26c-.18.13-.42.17-.7.17s-.53-.04-.7-.17c-.2-.14-.28-.37-.28-.66s.08-.52.28-.66c.18-.13.42-.17.7-.17s.52.04.7.17c.2.14.28.38.28.66s-.08.52-.28.66h0ZM656.28,33.26h0Z"/>
    <polygon class="st0" points="658.86 33.38 658.25 32.08 658.24 32.08 657.64 33.38 657.48 33.38 656.83 31.81 657.03 31.81 657.57 33.13 657.58 33.13 658.17 31.81 658.34 31.81 658.93 33.13 658.95 33.13 659.47 31.81 659.67 31.81 659.02 33.38 658.86 33.38 658.86 33.38"/>
    <path class="st0" d="M660.84,31.93c-.5,0-.67.22-.71.55h1.41c-.02-.36-.2-.55-.71-.55h0ZM660.83,33.43c-.3,0-.5-.04-.65-.17-.18-.16-.25-.39-.25-.65s.08-.52.29-.67c.17-.12.39-.16.61-.16.2,0,.44.02.63.15.23.15.27.42.27.72h-1.61c0,.32.11.61.72.61.29,0,.56-.05.81-.09v.16c-.26.05-.55.1-.83.1h0Z"/>
    <path class="st0" d="M662.26,33.38v-1.57h.15l.02.09c.33-.08.49-.14.78-.14h.02v.17h-.04c-.25,0-.39.03-.74.12v1.31h-.18Z"/>
    <path class="st0" d="M664.3,31.93c-.5,0-.67.22-.71.55h1.41c-.02-.36-.2-.55-.71-.55h0ZM664.29,33.43c-.3,0-.5-.04-.65-.17-.18-.16-.25-.39-.25-.65s.08-.52.29-.67c.17-.12.39-.16.61-.16.2,0,.44.02.63.15.23.15.27.42.27.72h-1.61c0,.32.11.61.72.61.29,0,.56-.05.81-.09v.16c-.26.05-.55.1-.83.1h0Z"/>
    <path class="st0" d="M667.2,32.04c-.2-.07-.42-.11-.63-.11-.54,0-.8.18-.8.66,0,.45.21.65.62.65.25,0,.53-.06.81-.12v-1.09h0ZM667.24,33.38l-.02-.09c-.25.06-.6.14-.85.14-.2,0-.39-.03-.56-.16-.19-.15-.25-.4-.25-.66s.09-.54.35-.69c.18-.1.42-.14.63-.14s.43.04.65.1v-.72h.18v2.23h-.15Z"/>
    <path class="st0" d="M670.07,31.94c-.25,0-.53.06-.81.12v1.08c.2.07.42.11.63.11.54,0,.8-.18.8-.66,0-.45-.21-.65-.62-.65h0ZM670.54,33.29c-.18.1-.42.14-.63.14-.23,0-.47-.04-.7-.12v.07h-.13v-2.23h.18v.75c.25-.06.59-.13.83-.13.2,0,.39.03.56.16.19.15.25.4.25.66s-.09.54-.35.69h0Z"/>
    <path class="st0" d="M671.13,33.99v-.17c.09,0,.17.02.23.02.23,0,.36-.07.49-.32l.06-.12-.82-1.57h.21l.7,1.35h.01l.67-1.35h.21s-.88,1.76-.88,1.76c-.16.32-.34.43-.66.43-.07,0-.15,0-.23-.02h0Z"/>
    <path class="st0" d="M675.43,32.49h-.61v.55h.61c.42,0,.58-.05.58-.28,0-.25-.22-.27-.58-.27h0ZM675.31,31.6h-.5v.56h.5c.41,0,.58-.05.58-.28,0-.25-.21-.28-.58-.28h0ZM676.26,33.23c-.22.14-.49.15-.99.15h-.93v-2.13h.91c.43,0,.69,0,.9.14.16.09.22.24.22.42,0,.22-.09.37-.34.47h0c.27.07.45.21.45.52,0,.2-.07.34-.23.43h0Z"/>
    <path class="st0" d="M678.34,32.72c-.18-.02-.37-.02-.57-.02-.32,0-.43.07-.43.21,0,.14.09.21.34.21.21,0,.45-.05.66-.09v-.3h0ZM678.44,33.38v-.09c-.28.07-.59.14-.86.14-.17,0-.35-.02-.48-.12-.12-.08-.17-.22-.17-.38,0-.18.08-.34.26-.43.16-.08.39-.08.59-.08.16,0,.39,0,.57.02v-.03c0-.25-.16-.33-.6-.33-.17,0-.38,0-.58.03v-.32c.22-.02.47-.03.67-.03.27,0,.56.02.73.15.18.13.21.3.21.54v.93h-.34Z"/>
    <path class="st0" d="M680.83,33.38v-.87c0-.29-.15-.39-.41-.39-.19,0-.43.05-.64.1v1.16s-.44,0-.44,0v-1.57h.36l.02.1c.28-.07.58-.14.84-.14.19,0,.39.03.54.16.12.11.17.27.17.49v.96h-.44Z"/>
    <path class="st0" d="M682.5,33.43c-.2,0-.42-.03-.58-.16-.19-.16-.25-.4-.25-.67,0-.25.08-.52.32-.67.2-.13.44-.16.69-.16.18,0,.36.01.55.03v.34c-.16-.02-.35-.03-.5-.03-.42,0-.61.13-.61.49,0,.34.15.48.49.48.2,0,.43-.04.66-.08v.32c-.25.05-.51.1-.76.1h0Z"/>
    <path class="st0" d="M684.56,32.1c-.42,0-.6.13-.6.49s.18.51.6.51.59-.13.59-.49-.18-.51-.59-.51h0ZM685.31,33.26c-.19.13-.44.16-.75.16s-.57-.04-.76-.16c-.22-.14-.3-.38-.3-.66s.08-.52.3-.67c.19-.13.44-.16.76-.16s.56.04.75.16c.22.14.29.38.29.66s-.08.52-.29.67h0ZM685.31,33.26h0Z"/>
    <path class="st0" d="M688.14,33.43c-.26,0-.55-.04-.76-.22-.25-.21-.33-.54-.33-.89,0-.31.1-.69.43-.9.26-.17.58-.2.9-.2.24,0,.48.02.74.04v.38c-.23-.02-.51-.03-.72-.03-.61,0-.86.23-.86.72s.24.72.69.72c.29,0,.62-.06.95-.13v.38c-.33.07-.67.13-1.03.13h0Z"/>
    <path class="st0" d="M690.45,32.05c-.36,0-.5.13-.53.37h1.06c-.01-.25-.16-.37-.53-.37h0ZM690.38,33.43c-.26,0-.49-.03-.67-.17-.19-.16-.25-.39-.25-.66,0-.24.08-.51.3-.66.19-.14.44-.16.69-.16.22,0,.49.02.68.16.25.18.27.45.28.77h-1.49c0,.24.14.39.58.39.27,0,.58-.04.84-.08v.31c-.3.05-.63.1-.94.1h0Z"/>
    <path class="st0" d="M693.36,33.38v-.87c0-.29-.15-.39-.41-.39-.19,0-.43.05-.64.1v1.16s-.44,0-.44,0v-1.57h.36l.02.1c.28-.07.58-.14.84-.14.19,0,.39.03.54.16.12.11.17.27.17.49v.96h-.44Z"/>
    <path class="st0" d="M695.04,33.43c-.21,0-.4-.06-.51-.22-.08-.11-.12-.26-.12-.48v-.59h-.32v-.33h.32l.05-.48h.39v.48h.62v.33h-.62v.5c0,.12,0,.22.04.3.05.11.15.15.29.15.1,0,.23-.02.31-.03v.31c-.14.03-.31.06-.45.06h0Z"/>
    <path class="st0" d="M695.89,33.38v-1.57h.36l.02.1c.29-.08.5-.14.78-.14.01,0,.03,0,.06,0v.37s-.11,0-.15,0c-.21,0-.38.02-.62.08v1.16h-.44Z"/>
    <path class="st0" d="M698.69,32.72c-.18-.02-.37-.02-.57-.02-.32,0-.43.07-.43.21,0,.14.09.21.34.21.21,0,.45-.05.66-.09v-.3h0ZM698.79,33.38v-.09c-.28.07-.59.14-.86.14-.17,0-.35-.02-.48-.12-.12-.08-.17-.22-.17-.38,0-.18.08-.34.26-.43.16-.08.39-.08.59-.08.16,0,.39,0,.57.02v-.03c0-.25-.16-.33-.6-.33-.17,0-.38,0-.58.03v-.32c.22-.02.47-.03.67-.03.27,0,.56.02.73.15.18.13.21.3.21.54v.93h-.34Z"/>
    <polygon class="st0" points="699.69 31.15 700.13 31.15 700.13 33.38 699.69 33.38 699.69 31.15 699.69 31.15"/>
  </g>
  <path class="st0" d="M33.17,6.39l-11.43,27.29h-7.46l-5.62-21.77c-.35-1.34-.64-1.83-1.68-2.4C5.27,8.58,2.47,7.72,0,7.18l.17-.79h12.01c1.53,0,2.91,1.02,3.25,2.78l2.97,15.79,7.34-18.57h7.42ZM62.4,24.76c.03-7.2-9.96-7.59-9.89-10.81.02-.98.95-2.02,2.99-2.29,1.01-.13,3.8-.23,6.96,1.22l1.24-5.78c-1.7-.62-3.89-1.21-6.6-1.21-6.98,0-11.89,3.71-11.93,9.02-.05,3.93,3.5,6.12,6.18,7.42,2.75,1.34,3.67,2.19,3.66,3.39-.02,1.83-2.19,2.63-4.22,2.67-3.55.06-5.61-.96-7.25-1.73l-1.28,5.98c1.65.76,4.7,1.41,7.85,1.45,7.41,0,12.26-3.67,12.29-9.34M80.82,33.67h6.53l-5.7-27.29h-6.03c-1.35,0-2.5.79-3.01,2l-10.59,25.29h7.41l1.47-4.07h9.06l.85,4.08ZM72.95,24.01l3.72-10.25,2.14,10.25h-5.86ZM43.25,6.39l-5.84,27.29h-7.06l5.84-27.29h7.06Z"/>
  <g>
    <path class="st0" d="M234.18,21.49c-.25,2.01,2.17,1.77,3.03.93.66-.64.82-1.8.97-2.72-1.97-.24-3.79.11-4,1.79Z"/>
    <path class="st0" d="M207.28,17.61c-.13.64-.22,1.33-.35,2.06-.13.72-.39,1.44-.31,2.13.17,1.59,2.37,1.61,3.26.66.74-.78,1.35-2.72,1.13-4.27-.26-1.79-2.85-1.66-3.73-.58Z"/>
    <path class="st0" d="M207.32,16.61s-.03.02-.04.03c.02,0,.04,0,.04-.03Z"/>
    <path class="st0" d="M217.42,16.76c-1.28.05-2.09,1.04-2.21,1.94h3.92c.36-1.5-.51-1.99-1.71-1.94Z"/>
    <path class="st0" d="M249.83,16.8c-1.8.2-2.68,2.44-2.64,4.46.03,1.15.58,1.85,1.71,1.82,2.63-.06,2.43-3.71,2.99-5.98-.61-.21-1.22-.4-2.06-.31Z"/>
    <path class="st0" d="M205.19,3.29h-7.96c-3.52.17-6.39,1.58-7.22,4.5-.43,1.52-.67,3.2-1.01,4.77-1.72,8.03-3.25,16.28-4.89,24.15h61.95c4.79,0,8.08-1.01,8.97-4.81.41-1.77.81-3.77,1.2-5.71,1.54-7.56,3.08-15.13,4.66-22.9h-55.7ZM203.4,12.88c.13-.18.32-.29.66-.35.36-.06.62-.02.78.12.49.43.06,1.48-.27,1.71-.21.15-.92.31-1.24,0-.33-.32-.13-1.19.08-1.48ZM197.85,23.98c.3-1.9.69-3.71,1.01-5.59-1.56-.15-3.5-.08-5.12-.04-.39,1.81-.67,3.73-.97,5.63h-1.9c.74-3.71,1.35-7.55,2.02-11.33h1.86c-.31,1.49-.54,3.06-.85,4.54,1.67.12,3.43.06,5.16.04.27-1.52.54-3.03.78-4.58h1.94c-.76,3.69-1.41,7.5-2.02,11.33h-1.9ZM201.42,23.98c.53-2.59,1.03-5.21,1.4-7.96,0-.06,0-.11.04-.12h1.67c-.58,2.59-1.04,5.31-1.44,8.07h-1.67ZM210.27,23.75c-1.05.57-3.54.85-3.92-.62-.34,1.4-.5,2.97-.74,4.46h-1.67c.75-3.83,1.46-7.7,2.06-11.68h1.44c-.01.26-.1.44-.12.7,0,0,0,0,0,0,.75-.6,2.47-1.24,3.88-.71,2.91,1.09,1.24,6.67-.93,7.84ZM220.48,19.63c-1.8-.05-3.67-.06-5.47,0-.28,1.19-.27,2.56.58,3.11,1.13.72,3.05.14,4.15-.27-.07.44-.19.85-.23,1.32-2.68.65-6.03.75-6.33-1.94-.21-1.88.51-3.95,1.4-4.89.72-.76,1.74-1.11,2.95-1.2,1.38-.11,2.73.18,3.11,1.28.29.83-.04,1.76-.16,2.6ZM223.47,18.78c-.52,1.51-.62,3.63-.85,5.2h-1.67c.51-2.65,1.04-5.28,1.4-8.07h1.48c-.1.44-.15.94-.27,1.36.54-.95,1.7-1.96,3.18-1.36-.05.42-.17.76-.19,1.2-1.57-.56-2.65.47-3.07,1.67ZM231.43,23.75c-2.18.75-4.87.65-5.47-1.32-.51-1.68.21-4.35,1.32-5.51,1.13-1.19,3.26-1.42,5.51-1.05-.06.45-.15.86-.19,1.32-1.37-.48-3.09-.62-3.96.23-.63.62-1.04,1.98-1.13,3.11-.04.5,0,1.16.16,1.55.53,1.37,2.81,1.05,4,.43-.09.41-.14.85-.23,1.24ZM239.66,20.25c-.21,1.24-.41,2.35-.43,3.73h-1.44c-.02-.48.05-.86.12-1.24-.69,1.1-2.68,1.9-4.31,1.2-.85-.36-1.29-1.67-.89-2.99.59-1.98,2.86-2.44,5.63-2.17.12-.34.29-.81.19-1.24-.3-1.31-3.36-.56-4.35-.31.1-.44.23-.86.31-1.32,1.98-.06,5.51-.81,5.63,1.32.05.93-.29,1.97-.47,3.03ZM242.69,21.07c-.17,1.05-.38,1.84-.39,2.91h-1.71c.56-2.61,1.04-5.3,1.44-8.07h1.48c-.13.39-.13.9-.27,1.28.48-.74,1.71-1.98,3.18-1.24-.11.36-.15.79-.23,1.16-2.61-.74-3.14,1.72-3.49,3.96ZM252.43,23.98h-1.51c0-.44.1-.81.16-1.2-.03-.1-.2.25-.31.39-.14.18-.37.44-.58.58-1.12.74-3.34.53-4.11-.35-.45-.51-.57-1.22-.58-1.94-.05-3.72,2.47-6.73,6.56-5.43.25-1.15.44-2.36.58-3.61h1.67c-.67,3.81-1.57,7.38-1.86,11.57Z"/>
  </g>
  <path class="st1" d="M315.23,25.64c0,.96-.61,1.4-1.69,1.4h-2.07v-.96h2.07c.19,0,.35-.03.41-.1.06-.06.13-.16.13-.29s-.06-.26-.13-.32c-.06-.06-.19-.1-.38-.1-.99-.03-2.23.03-2.23-1.37,0-.64.41-1.34,1.53-1.34h2.14v.96h-1.98c-.19,0-.32,0-.41.06-.1.1-.16.19-.16.35s.1.26.22.32c.13.03.26.06.41.06h.57c.61,0,.99.13,1.24.35.19.22.32.51.32.96ZM310.73,24.69c-.26-.22-.64-.35-1.24-.35h-.57c-.16,0-.29-.03-.41-.06-.13-.06-.22-.16-.22-.32s.03-.26.16-.35c.1-.06.22-.06.41-.06h1.98v-.96h-2.14c-1.15,0-1.53.7-1.53,1.34,0,1.4,1.24,1.34,2.23,1.37.19,0,.32.03.38.1.06.06.13.19.13.32s-.06.22-.13.29c-.1.06-.22.1-.41.1h-2.07v.96h2.07c1.08,0,1.69-.45,1.69-1.4,0-.45-.13-.73-.32-.96h0ZM306.65,26.12h-2.52v-.89h2.45v-.89h-2.45v-.83h2.52v-.92h-3.57v4.46h3.57v-.92h0ZM301.93,22.81c-.35-.19-.77-.22-1.31-.22h-2.45v4.46h1.08v-1.63h1.15c.38,0,.61.03.77.19.19.22.19.61.19.89v.54h1.05v-.86c0-.41-.03-.61-.16-.83-.1-.13-.29-.29-.54-.38.29-.1.77-.48.77-1.18,0-.51-.19-.8-.54-.99ZM295.88,22.58h-3.41l-1.37,1.47-1.31-1.47h-4.3v4.46h4.24l1.37-1.47,1.31,1.47h2.07v-1.5h1.34c.92,0,1.85-.26,1.85-1.5,0-1.21-.96-1.47-1.79-1.47h0ZM301.07,24.43c-.16.06-.32.06-.51.06l-1.31.03v-1.02h1.31c.19,0,.38,0,.51.1.13.06.22.19.22.38s-.1.35-.22.45ZM295.88,24.65h-1.4v-1.15h1.4c.38,0,.64.16.64.54s-.26.61-.64.61ZM291.76,24.81l1.66-1.75v3.6l-1.66-1.85ZM289.18,26.12h-2.65v-.89h2.36v-.89h-2.36v-.83h2.68l1.18,1.31-1.21,1.31h0ZM312.26,19.36h-1.53l-2.01-3.35v3.35h-2.17l-.41-.99h-2.23l-.41.99h-1.24c-.51,0-1.18-.13-1.56-.51-.35-.38-.54-.89-.54-1.69,0-.67.1-1.28.57-1.75.32-.35.89-.51,1.63-.51h1.02v.96h-1.02c-.38,0-.61.06-.83.26-.19.19-.29.54-.29,1.02s.1.83.29,1.05c.16.16.45.22.73.22h.48l1.53-3.51h1.59l1.79,4.21v-4.21h1.66l1.88,3.09v-3.09h1.08v4.46h0ZM299.61,14.9h-1.08v4.46h1.08v-4.46h0ZM297.34,15.09c-.35-.19-.73-.19-1.27-.19h-2.45v4.46h1.05v-1.63h1.15c.38,0,.64.03.8.19.19.22.16.61.16.86v.57h1.08v-.89c0-.38-.03-.57-.19-.8-.1-.13-.29-.29-.51-.38.29-.13.77-.48.77-1.18,0-.51-.22-.8-.57-1.02h0ZM292.85,18.44h-2.49v-.89h2.45v-.92h-2.45v-.8h2.49v-.92h-3.57v4.46h3.57v-.92h0ZM288.48,14.9h-1.75l-1.31,3.03-1.4-3.03h-1.72v4.21l-1.82-4.21h-1.59l-1.91,4.46h1.15l.41-.99h2.23l.41.99h2.17v-3.51l1.56,3.51h.92l1.56-3.51v3.51h1.08v-4.46h0,0ZM305.76,17.42l-.73-1.75-.73,1.75h1.47ZM296.51,16.72c-.16.1-.32.1-.54.1h-1.31v-.99h1.31c.19,0,.41,0,.54.06.13.1.19.22.19.41s-.06.35-.19.41ZM278.92,17.42l.73-1.75.73,1.75h-1.47ZM314.97.91h-38.03v16.07l1.31-2.96h2.77l.38.73v-.73h3.25l.73,1.59.7-1.59h10.36c.48,0,.89.1,1.21.35v-.35h2.84v.35c.48-.26,1.08-.35,1.79-.35h4.11l.38.73v-.73h3.03l.45.73v-.73h2.96v6.25h-3l-.57-.96v.96h-3.73l-.41-1.02h-.92l-.41,1.02h-1.94c-.77,0-1.34-.19-1.72-.38v.38h-4.62v-1.43c0-.19-.03-.22-.16-.22h-.16v1.66h-8.93v-.8l-.32.8h-1.88l-.32-.77v.77h-3.6l-.38-1.02h-.92l-.41,1.02h-1.85v18.84h38.03v-11.44c-.41.19-.99.29-1.56.29h-2.77v-.38c-.32.26-.89.38-1.43.38h-8.73v-1.43c0-.19-.03-.19-.19-.19h-.16v1.63h-2.87v-1.69c-.48.22-1.02.22-1.5.22h-.32v1.47h-3.51l-.83-.96-.92.96h-5.64v-6.25h5.74l.83.96.89-.96h3.86c.45,0,1.18.06,1.5.38v-.38h3.44c.35,0,1.02.06,1.47.38v-.38h5.2v.38c.29-.26.83-.38,1.31-.38h2.9v.38c.32-.22.77-.38,1.34-.38h1.98V.91h0Z"/>
  <g>
    <g>
      <rect class="st0" x="722.6" y="2.38" width="3.76" height="15.57"/>
      <rect class="st0" x="727.55" y="2.38" width="1.17" height="15.57"/>
      <rect class="st0" x="729.73" y="2.38" width="2.09" height="15.57"/>
      <rect class="st0" x="733.83" y="2.38" width="1.17" height="15.57"/>
      <rect class="st0" x="735.51" y="2.38" width=".9" height="15.57"/>
      <rect class="st0" x="719.73" y="2.38" width="1.17" height="35.25"/>
      <rect class="st0" x="717.16" y="2.38" width="2.09" height="35.25"/>
      <rect class="st0" x="742.64" y="2.38" width="3.76" height="15.57"/>
      <rect class="st0" x="747.59" y="2.38" width="1.17" height="15.57"/>
      <rect class="st0" x="749.78" y="2.38" width="2.09" height="15.57"/>
      <rect class="st0" x="753.88" y="2.38" width="1.17" height="15.57"/>
      <rect class="st0" x="755.55" y="2.38" width=".9" height="15.57"/>
      <rect class="st0" x="739.78" y="2.38" width="1.17" height="15.57"/>
      <rect class="st0" x="737.21" y="2.38" width="2.09" height="15.57"/>
      <rect class="st0" x="757.93" y="2.38" width="2.09" height="15.57"/>
      <rect class="st0" x="762.03" y="2.38" width="1.17" height="15.57"/>
      <rect class="st0" x="763.7" y="2.38" width=".9" height="15.57"/>
      <rect class="st0" x="767.98" y="2.38" width="1.17" height="15.57"/>
      <rect class="st0" x="765.4" y="2.38" width="2.09" height="15.57"/>
      <rect class="st0" x="770.69" y="2.38" width="1.17" height="15.57"/>
      <rect class="st0" x="772.37" y="2.38" width=".9" height="15.57"/>
      <rect class="st0" x="776.64" y="2.38" width="1.17" height="15.57"/>
      <rect class="st0" x="774.07" y="2.38" width="2.09" height="15.57"/>
      <rect class="st0" x="778.82" y="2.38" width="3.76" height="15.57"/>
      <rect class="st0" x="783.77" y="2.38" width="1.17" height="15.57"/>
      <rect class="st0" x="785.96" y="2.38" width="2.09" height="15.57"/>
      <rect class="st0" x="790.06" y="2.38" width="1.17" height="15.57"/>
      <rect class="st0" x="791.73" y="2.38" width=".9" height="15.57"/>
      <rect class="st0" x="794.11" y="2.38" width="2.09" height="35.25"/>
    </g>
    <path class="st0" d="M722.78,36.95v-17.87h6.71c1.36,0,2.46.18,3.29.54.82.36,1.47.92,1.93,1.67.47.75.7,1.54.7,2.36,0,.76-.21,1.48-.62,2.16-.41.67-1.04,1.22-1.87,1.64,1.08.32,1.91.86,2.49,1.62.58.76.87,1.66.87,2.7,0,.84-.18,1.62-.53,2.34-.35.72-.79,1.27-1.31,1.66-.52.39-1.17.68-1.96.88-.79.2-1.75.3-2.89.3h-6.82ZM725.15,26.59h3.87c1.05,0,1.8-.07,2.26-.21.6-.18,1.06-.48,1.36-.89.3-.42.46-.94.46-1.56,0-.59-.14-1.12-.43-1.57-.28-.45-.69-.77-1.22-.93-.53-.17-1.44-.25-2.72-.25h-3.57v5.42h0ZM725.15,34.85h4.45c.77,0,1.3-.03,1.61-.09.54-.1,1-.26,1.36-.49s.67-.56.9-1c.24-.44.35-.94.35-1.51,0-.67-.17-1.25-.52-1.74-.34-.5-.82-.84-1.42-1.04-.6-.2-1.48-.3-2.61-.3h-4.14v6.17h0Z"/>
    <path class="st0" d="M738.43,30.47c0-2.39.67-4.16,2-5.32,1.11-.96,2.47-1.44,4.07-1.44,1.78,0,3.23.58,4.36,1.75,1.13,1.16,1.69,2.77,1.69,4.82,0,1.66-.25,2.97-.75,3.92-.5.95-1.23,1.69-2.18,2.22-.95.53-2,.79-3.12.79-1.81,0-3.28-.58-4.4-1.74-1.12-1.16-1.68-2.83-1.68-5.01h0ZM740.68,30.47c0,1.66.36,2.9,1.09,3.72.73.82,1.64,1.24,2.74,1.24s2-.41,2.73-1.24c.72-.83,1.09-2.09,1.09-3.78,0-1.6-.37-2.81-1.09-3.63-.73-.82-1.64-1.24-2.72-1.24s-2.01.41-2.74,1.23c-.72.82-1.09,2.06-1.09,3.71h0Z"/>
    <polygon class="st0" points="753.09 36.95 753.09 19.07 755.29 19.07 755.29 36.95 753.09 36.95 753.09 36.95"/>
    <path class="st0" d="M767.52,32.75l2.27.3c-.35,1.32-1.02,2.35-1.98,3.07-.97.73-2.2,1.09-3.7,1.09-1.89,0-3.39-.58-4.49-1.75-1.11-1.16-1.66-2.8-1.66-4.9s.56-3.86,1.68-5.06c1.12-1.2,2.57-1.8,4.36-1.8s3.14.59,4.23,1.76c1.09,1.18,1.64,2.83,1.64,4.97,0,.13,0,.32-.01.58h-9.65c.08,1.42.48,2.51,1.21,3.26.72.75,1.62,1.13,2.7,1.13.8,0,1.49-.21,2.06-.64.57-.42,1.02-1.1,1.35-2.03h0ZM760.34,29.23h7.21c-.1-1.09-.37-1.91-.83-2.45-.69-.84-1.6-1.27-2.71-1.27-1.01,0-1.85.34-2.54,1.01-.68.67-1.06,1.58-1.14,2.71h0Z"/>
    <path class="st0" d="M777.34,34.99l.3,1.94c-.62.13-1.17.2-1.65.2-.79,0-1.41-.12-1.85-.38-.44-.25-.74-.58-.92-.99-.18-.41-.27-1.28-.27-2.6v-7.46h-1.62v-1.7h1.62v-3.2l2.2-1.32v4.52h2.2v1.7h-2.2v7.59c0,.63.04,1.03.12,1.21.07.18.2.32.37.43.17.1.42.16.75.16.24,0,.56-.03.96-.09h0Z"/>
    <path class="st0" d="M778.68,30.47c0-2.39.67-4.16,2-5.32,1.11-.96,2.47-1.44,4.07-1.44,1.78,0,3.23.58,4.36,1.75,1.13,1.16,1.69,2.77,1.69,4.82,0,1.66-.25,2.97-.75,3.92-.5.95-1.23,1.69-2.18,2.22-.95.53-2,.79-3.12.79-1.81,0-3.28-.58-4.4-1.74-1.12-1.16-1.68-2.83-1.68-5.01h0ZM780.93,30.47c0,1.66.36,2.9,1.09,3.72.73.82,1.64,1.24,2.74,1.24s2-.41,2.73-1.24c.72-.83,1.09-2.09,1.09-3.78,0-1.6-.37-2.81-1.09-3.63-.73-.82-1.64-1.24-2.72-1.24s-2.01.41-2.74,1.23c-.72.82-1.09,2.06-1.09,3.71h0Z"/>
  </g>
  <g>
    <g>
      <path class="st0" d="M441.21,15.32c.79-.27,1.64-.41,2.52-.41,3.85,0,7.07,2.74,7.8,6.37l5.46-1.11c-1.25-6.18-6.71-10.83-13.26-10.83-1.5,0-2.94.24-4.29.7l1.77,5.28Z"/>
      <path class="st0" d="M434.77,33.01l3.69-4.17c-1.65-1.46-2.69-3.59-2.69-5.96s1.04-4.5,2.69-5.96l-3.69-4.17c-2.8,2.48-4.56,6.1-4.56,10.13s1.77,7.66,4.57,10.14"/>
      <path class="st0" d="M451.54,24.47c-.74,3.63-3.95,6.36-7.8,6.36-.88,0-1.73-.14-2.53-.41l-1.77,5.29c1.35.45,2.79.69,4.3.69,6.54,0,12-4.64,13.26-10.82l-5.46-1.12Z"/>
    </g>
    <path class="st0" d="M393.01,29.9c-.29-.47-.69-1.23-.93-1.79-1.42-3.29-1.48-6.69-.29-9.96,1.32-3.58,3.83-6.32,7.07-7.72,4.08-1.76,8.59-1.41,12.5.91,2.48,1.43,4.25,3.63,5.58,6.74.17.4.32.82.47,1.19l-24.41,10.64ZM401.16,15.7c-2.9,1.25-4.39,3.96-4.08,7.15l12.28-5.28c-2.11-2.48-4.86-3.3-8.19-1.87ZM410.89,27.2s0,0,0,0l-.25-.17c-.73,1.19-1.88,2.15-3.32,2.78-2.74,1.19-5.29.89-7.11-.72l-.17.26s0,0,0,0l-3.11,4.66c.77.54,1.6.99,2.47,1.36,3.44,1.43,6.96,1.36,10.43-.15,2.51-1.09,4.48-2.74,5.82-4.85l-4.74-3.17Z"/>
    <path class="st0" d="M425.95,3.56v25.9l4.03,1.63-2.29,5.34-4.45-1.85c-1-.43-1.68-1.09-2.19-1.84-.49-.76-.86-1.8-.86-3.21V3.56h5.76Z"/>
  </g>
  <g>
    <path class="st0" d="M339.93,29.77c-.41.62-.88,1.2-1.47,1.2-.5,0-.5-.46-.5-.65,0-.5.83-3.11.83-3.41,0-.22-.08-.27-.67-.27v-.17c.4-.02,1.28-.19,1.69-.26l.03.02-.93,3.4c-.04.15-.17.57-.17.7,0,.07.07.16.17.16.13,0,.43-.21.87-.82l.14.12Z"/>
    <path class="st0" d="M339.72,25.07c-.26,0-.51-.18-.51-.55s.24-.57.5-.57c.35,0,.53.35.53.58,0,.21-.17.54-.52.54Z"/>
    <path class="st0" d="M344.89,29.76c-.53.71-.9,1.19-1.47,1.19-.49,0-.51-.32-.51-.62,0-.25.78-2.83.78-3.25,0-.19-.06-.34-.26-.34-.51,0-1.17.91-1.55,1.5-.49.73-.62,1.18-1.06,2.62h-.79c.33-1.19,1.03-3.66,1.03-3.89,0-.16-.11-.27-.68-.27v-.17c.57-.11,1.14-.21,1.71-.33l.03.02-.68,2.21.02.02c.5-.78,1.47-2.25,2.34-2.25.49,0,.73.25.73.7s-.84,3.06-.84,3.38c0,.16.15.18.17.18.21,0,.48-.34.87-.83l.15.14Z"/>
    <path class="st0" d="M348.97,30.85l.86-3.08c.11-.39.17-.75.17-.84,0-.15-.05-.32-.38-.32-.12,0-.23.03-.35.05v-.18c.54-.07,1.16-.21,1.64-.29l.03.02-.52,2.1.02.02.08-.21c.35-.7,1.15-1.93,1.82-1.93.24,0,.51.16.51.52,0,.55-.38.55-.5.55-.45,0-.3-.38-.55-.38-.33,0-.96,1.17-1.05,1.33-.4.76-.55,1.24-.98,2.64h-.8Z"/>
    <path class="st0" d="M352.36,29.31c.07.46.24,1.44,1.1,1.44.59,0,.76-.51.76-.86,0-.7-1.26-1.71-1.26-2.52,0-.33.15-1.17,1.27-1.17.48,0,.69.18,1,.18.18,0,.24-.11.3-.19h.15l-.21,1.47h-.17c-.05-.6-.31-1.21-.99-1.21-.23,0-.57.1-.57.61,0,.67,1.29,1.6,1.29,2.5,0,1.15-.98,1.41-1.57,1.41-.32,0-.74-.2-1.05-.2-.15,0-.19.11-.25.22h-.17l.21-1.68h.17Z"/>
    <path class="st0" d="M363.97,25.91c-.02-.3-.12-1.71-1.63-1.71-2.11,0-3.19,2.56-3.19,4.11,0,1.38.58,2.26,1.84,2.26s1.93-.75,2.44-1.25l.18.15c-.39.46-1.33,1.57-2.87,1.57-1.22,0-2.77-.74-2.77-2.85s1.87-4.37,4.29-4.37c.76,0,1.4.25,1.65.25.31,0,.37-.13.42-.23h.22l-.39,2.1-.19-.03Z"/>
    <path class="st0" d="M366.37,29.65c-.54.81-.95,1.32-1.6,1.32-.46,0-.51-.36-.51-.65,0-.22,1.53-5.73,1.53-5.95,0-.27-.44-.27-.72-.26v-.17c.55-.06,1.1-.16,1.65-.29l.05.05-1.59,6.11c-.02.1-.11.38-.11.5,0,.06,0,.21.16.21.26,0,.49-.3,1-.96l.14.1Z"/>
    <path class="st0" d="M371.16,29.71c-.67.96-.94,1.24-1.47,1.24-.48,0-.5-.39-.5-.55,0-.19.21-1.08.45-1.94h-.03c-.72,1.19-1.5,2.51-2.45,2.51-.38,0-.58-.16-.58-.62s.8-3.13.8-3.41c0-.31-.2-.31-.63-.31v-.15c.53-.06,1.06-.16,1.58-.29l.03.02-.96,3.83c-.03.14,0,.36.22.36.45,0,1.12-.99,1.48-1.54.52-.78.75-1.45,1.16-2.58h.78l-.83,3.16c-.06.21-.2.68-.2.83,0,.05.01.17.13.17.2,0,.5-.37.87-.83l.15.1Z"/>
    <path class="st0" d="M328.26,38.81c.52-.1.68-.13.86-.78l1.26-4.42c.06-.21.12-.46.12-.65,0-.37-.29-.4-.74-.45v-.17h2.61v.17c-.52.1-.69.12-.87.78l-1.26,4.43c-.06.21-.12.42-.12.68,0,.34.26.37.72.42v.17h-2.58v-.17Z"/>
    <path class="st0" d="M336.36,37.88c-.53.71-.9,1.19-1.47,1.19-.49,0-.51-.32-.51-.62,0-.25.78-2.83.78-3.25,0-.19-.06-.34-.26-.34-.51,0-1.17.91-1.55,1.5-.49.73-.62,1.18-1.06,2.62h-.79c.33-1.19,1.03-3.66,1.03-3.89,0-.16-.11-.27-.68-.27v-.17c.57-.11,1.14-.21,1.71-.33l.03.02-.68,2.21.02.02c.5-.78,1.47-2.25,2.34-2.25.49,0,.73.25.73.7s-.84,3.06-.84,3.38c0,.16.15.18.17.18.21,0,.48-.34.87-.83l.15.14Z"/>
    <path class="st0" d="M339.18,34.8h-.89l-.93,3.52s-.01.05-.01.08c0,.1.05.18.17.18.21,0,.58-.5.84-.83l.14.07c-.54.81-.95,1.28-1.5,1.28-.21,0-.51-.11-.51-.42,0-.16.2-.8.24-.97l.76-2.9h-.78c-.01-.06-.01-.12.02-.17.06-.09.36-.17.54-.26.35-.18.86-.65,1.15-1.02.04-.05.08-.15.18-.13.07-.02.1.07.07.16l-.3,1.09h.84l-.05.34Z"/>
    <path class="st0" d="M342.84,38.98l.86-3.08c.11-.39.17-.75.17-.84,0-.15-.05-.32-.38-.32-.12,0-.23.03-.35.05v-.18c.54-.07,1.16-.21,1.64-.28l.03.02-.52,2.1.02.02.08-.21c.35-.7,1.15-1.93,1.82-1.93.24,0,.51.16.51.52,0,.55-.38.55-.5.55-.45,0-.3-.38-.55-.38-.33,0-.96,1.17-1.05,1.33-.4.76-.55,1.24-.98,2.64h-.8Z"/>
    <path class="st0" d="M351.31,37.88c-.53.71-.9,1.19-1.47,1.19-.49,0-.51-.32-.51-.62,0-.25.78-2.83.78-3.25,0-.19-.06-.34-.26-.34-.51,0-1.17.91-1.55,1.5-.49.73-.62,1.18-1.06,2.62h-.79c.33-1.19,1.03-3.66,1.03-3.89,0-.16-.11-.27-.68-.27v-.17c.57-.11,1.14-.21,1.71-.33l.03.02-.68,2.21.02.02c.5-.78,1.47-2.25,2.34-2.25.49,0,.73.25.73.7s-.84,3.06-.84,3.38c0,.16.15.18.17.18.21,0,.48-.34.87-.83l.15.14Z"/>
    <path class="st0" d="M358.82,34.8h-.89l-.93,3.52s-.01.05-.01.08c0,.1.05.18.17.18.21,0,.58-.5.84-.83l.14.07c-.54.81-.95,1.28-1.5,1.28-.21,0-.51-.11-.51-.42,0-.16.2-.8.24-.97l.76-2.9h-.78c-.01-.06-.01-.12.02-.17.06-.09.36-.17.54-.26.35-.18.86-.65,1.15-1.02.04-.05.08-.15.18-.13.07-.02.1.07.07.16l-.3,1.09h.84l-.05.34Z"/>
    <path class="st0" d="M361.04,37.89c-.41.62-.88,1.2-1.47,1.2-.5,0-.5-.46-.5-.65,0-.5.83-3.11.83-3.41,0-.22-.08-.27-.67-.27v-.17c.4-.02,1.28-.19,1.69-.26l.03.02-.93,3.4c-.04.15-.17.57-.17.7,0,.07.07.16.17.16.13,0,.43-.21.87-.82l.14.12Z"/>
    <path class="st0" d="M360.83,33.19c-.26,0-.51-.18-.51-.55s.24-.57.5-.57c.35,0,.53.35.53.58,0,.21-.17.54-.52.54Z"/>
    <path class="st0" d="M370.41,37.88c-.53.71-.9,1.19-1.47,1.19-.49,0-.51-.32-.51-.62,0-.25.78-2.83.78-3.25,0-.19-.06-.34-.26-.34-.51,0-1.17.91-1.55,1.5-.49.73-.62,1.18-1.06,2.62h-.79c.33-1.19,1.03-3.66,1.03-3.89,0-.16-.11-.27-.68-.27v-.17c.57-.11,1.14-.21,1.71-.33l.03.02-.68,2.21.02.02c.5-.78,1.47-2.25,2.34-2.25.49,0,.73.25.73.7s-.84,3.06-.84,3.38c0,.16.15.18.17.18.21,0,.48-.34.87-.83l.15.14Z"/>
    <path class="st0" d="M377.31,38.06c-.54.81-.74,1.03-1.4,1.03-.46,0-.51-.36-.51-.65,0-.22,1.53-5.73,1.53-5.95,0-.27-.44-.27-.72-.26v-.17c.55-.06,1.1-.16,1.65-.29l.05.05-1.59,6.11c-.02.1-.11.38-.11.5,0,.06,0,.21.16.21.26,0,.28,0,.8-.67l.14.1Z"/>
    <g>
      <path class="st0" d="M348.09,5.45v11.79c2.43-.85,4.18-3.17,4.18-5.9s-1.75-5.04-4.18-5.89Z"/>
      <path class="st0" d="M359.23.91h-13.2c-5.77,0-10.44,4.67-10.44,10.44s4.67,10.44,10.44,10.44h13.2c5.77,0,10.44-4.67,10.44-10.44s-4.67-10.44-10.44-10.44ZM346.03,21.55c-5.64,0-10.21-4.57-10.21-10.21s4.57-10.21,10.21-10.21,10.21,4.57,10.21,10.21-4.57,10.21-10.21,10.21Z"/>
      <path class="st0" d="M339.79,11.35c0,2.73,1.75,5.05,4.19,5.9V5.45c-2.45.85-4.19,3.17-4.19,5.89Z"/>
    </g>
    <path class="st0" d="M334.55,24.17h-2.73v.17c.54.04.81.09.81.45,0,.21-.08.54-.12.65l-1.26,4.46c-.18.65-.34.69-.86.78v.17h2.67c3.1,0,4.56-1.75,4.56-3.88,0-1.11-.65-2.81-3.08-2.81ZM333.03,30.54c-.5,0-.75-.06-.75-.41,0-.17.14-.63.23-.98l1.24-4.36c.04-.15.08-.31.69-.31,1.87,0,2.02,1.3,2.02,2.37,0,.64-.1,3.69-3.43,3.69Z"/>
    <path class="st0" d="M346.36,28.85c1.71-.24,2.7-1.1,2.7-1.93,0-.46-.33-.72-.87-.72-1.49,0-3.16,1.77-3.16,3.28,0,.67.34,1.49,1.45,1.49s2.02-.97,2.13-1.14l-.13-.13c-.53.43-.97.79-1.54.79-.44,0-.99-.24-.99-.96,0-.21.05-.42.11-.64l.3-.04ZM346.32,28.19c.39-.94,1.11-1.75,1.68-1.75.26,0,.37.2.37.42,0,.08-.05,1.35-2.23,1.79l.18-.46Z"/>
    <path class="st0" d="M374.75,25.87c-.95,0-1.49.53-1.84,1.08h-.02c.36-1.2.68-2.38.91-3.25l-.05-.05c-.55.11-1.09.18-1.62.24v.18c.61.01.69.06.69.31,0,.15-.1.41-.17.71l-1.44,5.29v.04c0,.23.81.56,1.37.56,1.62,0,3.38-1.83,3.38-3.49,0-.77-.48-1.61-1.22-1.61ZM372.62,30.73c-.5,0-.5-.27-.5-.35.15-1.88,1.05-3.95,2.22-3.95.67,0,.73.86.73,1.19,0,.89-1,3.11-2.45,3.11Z"/>
    <path class="st0" d="M340.19,36.97c1.71-.24,2.7-1.1,2.7-1.93,0-.46-.33-.72-.87-.72-1.49,0-3.16,1.77-3.16,3.28,0,.67.34,1.49,1.45,1.49s2.02-.97,2.13-1.14l-.13-.13c-.53.43-.97.79-1.54.79-.44,0-.99-.24-.99-.96,0-.21.05-.42.11-.64l.3-.04ZM340.15,36.32c.39-.94,1.11-1.75,1.68-1.75.26,0,.37.2.37.42,0,.08-.05,1.35-2.23,1.79l.18-.46Z"/>
    <path class="st0" d="M356.03,37.82c-.48.46-.69.73-.84.73-.08,0-.15-.06-.15-.14,0-.33.97-3.93,1-4.05l-.07-.03-.64.07-.03.03-.11.46h-.02c-.03-.3-.38-.57-.83-.57-1.4,0-3.02,1.97-3.02,3.53,0,.31.03,1.25,1.09,1.25.63,0,1.19-.32,2.07-1.6l.02.02c-.17.64-.22.88-.22,1.12,0,.18,0,.45.44.45s.81-.38,1.45-1.16l-.13-.11ZM352.83,38.58c-.29,0-.63-.19-.63-.75,0-.95.95-3.27,2.19-3.27.31,0,.6.2.6.71,0,1.03-1.03,3.32-2.15,3.32Z"/>
    <path class="st0" d="M364.3,34.32c-1.54,0-3.1,1.7-3.1,3.25,0,.88.48,1.52,1.59,1.52,1.62,0,3.06-1.91,3.06-3.21,0-.7-.33-1.56-1.55-1.56ZM362.93,38.87c-.53,0-.84-.38-.84-.98,0-1.25.96-3.35,2.14-3.35.51,0,.74.46.74,1.01,0,1.13-.83,3.32-2.04,3.32Z"/>
    <path class="st0" d="M375.17,37.82c-.48.46-.69.73-.84.73-.08,0-.15-.06-.15-.14,0-.33.97-3.93,1-4.05l-.07-.03-.64.07-.03.03-.11.46h-.02c-.03-.3-.38-.57-.83-.57-1.4,0-3.02,1.97-3.02,3.53,0,.31.03,1.25,1.09,1.25.63,0,1.19-.32,2.07-1.6l.02.02c-.17.64-.22.88-.22,1.12,0,.18,0,.45.44.45s.81-.38,1.45-1.16l-.13-.11ZM371.97,38.58c-.29,0-.63-.19-.63-.75,0-.95.95-3.27,2.19-3.27.31,0,.6.2.6.71,0,1.03-1.03,3.32-2.15,3.32Z"/>
  </g>
  <g>
    <path class="st1" d="M509.74,15.06l-3.36,8.38h4.65l-1.27-8.41v.04h-.01ZM491.93,34.28l13.79-28.39h10.42l5.82,28.39h-9.15l-.67-3.78h-8.88l-2.04,3.78h-9.28ZM526.29,34.28l3.99-28.39h9.22l-3.99,28.39h-9.22ZM587.63,15.02l-3.38,8.41h4.65l-1.27-8.41h0ZM569.8,34.28l13.79-28.39h10.42l5.82,28.39h-9.15l-.67-3.78h-8.88l-2.04,3.78h-9.28Z"/>
    <polygon class="st1" points="549.42 21.01 560.97 21.01 568.89 34.12 557.33 34.12 549.42 21.01 549.42 21.01"/>
    <polygon class="st1" points="550.62 18.99 562.56 18.99 572.94 5.94 560.99 5.94 550.62 18.99 550.62 18.99"/>
    <polygon class="st1" points="538.67 34.2 550.62 34.2 560.99 20.98 549.05 20.98 538.67 34.2 538.67 34.2"/>
    <polygon class="st1" points="542.98 5.78 554.13 5.78 561.77 18.99 550.62 18.99 542.98 5.78 542.98 5.78"/>
    <path class="st1" d="M492.2,6.91l-.89,8.35c-3.4-4.69-11.28-1.45-11.9,4.39-.79,7.41,6.8,9.14,10.92,4.78l-.89,8.37c-1.23.61-2.44,1.07-3.62,1.39-1.18.32-2.37.49-3.54.51-1.48.03-2.82-.12-4.02-.46-1.21-.33-2.3-.86-3.26-1.58-1.86-1.36-3.21-3.09-4.04-5.2-.83-2.11-1.1-4.5-.82-7.17.23-2.14.77-4.1,1.63-5.87.85-1.77,2.03-3.38,3.54-4.84,1.42-1.39,2.97-2.44,4.65-3.15,1.67-.71,3.49-1.08,5.46-1.12,1.18-.03,2.33.09,3.45.36,1.13.27,2.24.69,3.34,1.25h0Z"/>
  </g>
</svg>