<?xml version="1.0" encoding="UTF-8"?>
<svg id="Layer_1" xmlns="http://www.w3.org/2000/svg" version="1.1" viewBox="0 0 26.04 24.94">
  <!-- Generator: Adobe Illustrator 30.3.0, SVG Export Plug-In . SVG Version: 2.1.3 Build 182)  -->
  <defs>
    <style>
      .st0 {
        fill: #daa520;
      }
    </style>
  </defs>
  <path class="st0" d="M13.02,24.94c-2.18,0-4.32-.58-6.22-1.67l-4.86,1.67,1-5.14c-1.56-2.15-2.39-4.67-2.39-7.32C.55,5.59,6.15,0,13.02,0s12.47,5.59,12.47,12.47-5.59,12.47-12.47,12.47ZM7.03,21.22l.38.24c1.69,1.06,3.64,1.62,5.62,1.62,5.85,0,10.61-4.76,10.61-10.61S18.87,1.86,13.02,1.86,2.41,6.62,2.41,12.47c0,2.38.78,4.64,2.25,6.52l.26.33-.55,2.81,2.65-.91Z"/>
  <path class="st0" d="M6.73,7.68s.73-1.28,1.33-1.35c.6-.07,1.36-.07,1.57.32.21.39,1.13,2.66,1.13,2.66,0,0,.16.39-.08.77-.24.38-.79.93-.79.93,0,0-.3.39,0,.8.3.41.78,1.18,1.75,2.15.98.98,2.85,1.67,2.85,1.67,0,0,.27.04.44-.13.17-.17,1.1-1.33,1.1-1.33,0,0,.3-.38.79-.16.49.23,2.63,1.29,2.63,1.29,0,0,.25.09.25.47s-.15,1.3-.47,1.61c-.31.31-1.23,1.28-2.6,1.28s-4.64-1.12-6.38-2.86c-1.74-1.74-3.29-3.51-3.65-5.12-.37-1.61-.32-2.33.13-3Z"/>
</svg>