<?xml version="1.0" encoding="UTF-8"?>
<svg id="Layer_1" xmlns="http://www.w3.org/2000/svg" version="1.1" viewBox="0 0 75 75">
  <!-- Generator: Adobe Illustrator 30.3.0, SVG Export Plug-In . SVG Version: 2.1.3 Build 182)  -->
  <defs>
    <style>
      .st0 {
        fill: #292929;
      }
    </style>
  </defs>
  <path class="st0" d="M61.32,7.6C34.3-2.53,40.69-2.53,13.68,7.6c-2.32.9-1.01,4.43,1.34,3.57l17.78-6.67c3.07-.94,6.34-.94,9.41,0l17.78,6.67c3.59,1.58,5.98,5.04,6.21,8.96v26.45c-.26,4.16-2.2,8.04-5.38,10.74l-15.3,11.43c-4.85,3.24-11.17,3.24-16.02,0l-15.3-11.43c-3.18-2.7-5.12-6.57-5.38-10.73v-26.45c0-2.48-3.81-2.5-3.81,0v26.45c.26,5.36,2.77,10.37,6.91,13.79l15.29,11.44c5.98,4.26,14.62,4.26,20.6,0l15.3-11.44c4.14-3.42,6.64-8.42,6.91-13.78v-26.45c-.21-5.51-3.6-10.39-8.68-12.53h0Z"/>
  <path class="st0" d="M42.48,31.79l-7.34,7.35-2.62-2.62c-1.76-1.7-4.4.93-2.7,2.7l3.97,3.97c.75.74,1.95.74,2.7,0l8.69-8.69c1.73-1.77-.92-4.46-2.7-2.7h0Z"/>
  <path class="st0" d="M55.99,37.47c0-10.21-8.29-18.48-18.5-18.48-24.47.86-24.45,36.14.01,36.98,10.21-.01,18.48-8.29,18.49-18.5ZM22.83,37.47c.61-19.4,28.77-19.37,29.35.02-.62,19.4-28.75,19.36-29.35-.02Z"/>
</svg>