<?xml version="1.0" encoding="UTF-8"?>
<svg id="Layer_1" xmlns="http://www.w3.org/2000/svg" version="1.1" viewBox="0 0 26.04 24.94">
  <!-- Generator: Adobe Illustrator 30.3.0, SVG Export Plug-In . SVG Version: 2.1.3 Build 182)  -->
  <defs>
    <style>
      .st0 {
        fill: #daa520;
      }
    </style>
  </defs>
  <path class="st0" d="M18.01,24.9h-9.98c-4.43,0-8.03-3.6-8.03-8.03v-8.79C0,3.64,3.6.04,8.03.04h9.98c4.43,0,8.03,3.6,8.03,8.03v8.79c0,4.43-3.6,8.03-8.03,8.03ZM8.03,1.82c-3.44,0-6.25,2.8-6.25,6.25v8.79c0,3.44,2.8,6.25,6.25,6.25h9.98c3.44,0,6.25-2.8,6.25-6.25v-8.79c0-3.44-2.8-6.25-6.25-6.25h-9.98Z"/>
  <path class="st0" d="M13.02,19.62c-3.94,0-7.15-3.21-7.15-7.15s3.21-7.15,7.15-7.15,7.15,3.21,7.15,7.15-3.21,7.15-7.15,7.15ZM13.02,7.1c-2.96,0-5.36,2.41-5.36,5.37s2.41,5.36,5.36,5.36,5.37-2.41,5.37-5.36-2.41-5.37-5.37-5.37Z"/>
  <path class="st0" d="M21.55,5.54c0,.82-.66,1.48-1.48,1.48s-1.48-.66-1.48-1.48.66-1.48,1.48-1.48,1.48.66,1.48,1.48Z"/>
</svg>