<?xml version="1.0" encoding="UTF-8"?>
<svg id="Layer_1" xmlns="http://www.w3.org/2000/svg" version="1.1" viewBox="0 0 75 75">
  <!-- Generator: Adobe Illustrator 30.3.0, SVG Export Plug-In . SVG Version: 2.1.3 Build 182)  -->
  <defs>
    <style>
      .st0 {
        fill: #292929;
      }
    </style>
  </defs>
  <path class="st0" d="M12.83,19.94c-.61,0-1.1.49-1.1,1.1v4.69c0,.61.49,1.1,1.1,1.1h14.08c.61,0,1.1-.49,1.1-1.1v-4.69c0-.61-.49-1.1-1.1-1.1h-14.08ZM25.81,24.63h-11.88v-2.49h11.88v2.49Z"/>
  <path class="st0" d="M31.42,47.93c.06,0,.12.01.18.01.1,0,.2-.01.3-.04l8.21-2.35c.07-.02.13-.04.19-.07l7.04-3.52c.37-.19.61-.57.61-.98,0-.84-.34-1.93-1.17-2.66v-20.26c0-.61-.49-1.1-1.1-1.1s-1.1.49-1.1,1.1v19.48s-.05,0-.07,0c-2.28,0-5.22,1.74-6.19,2.35h-5.15l-3.12-2.49h5.08c.61,0,1.1-.49,1.1-1.1v-2.35c0-1.9-1.55-3.45-3.45-3.45h-10.56c-.29,0-.57.12-.78.32l-4.37,4.37h-1.96v-.07c0-.61-.49-1.1-1.1-1.1h-4.77V6.89h13.05v8.28c0,.74.75,1.28,1.45,1.04l3.17-1.06,3.17,1.06c.7.23,1.45-.31,1.45-1.04V6.89h13.05v5.89c0,.61.49,1.1,1.1,1.1s1.1-.49,1.1-1.1v-6.99c0-.61-.49-1.1-1.1-1.1H8.14c-.61,0-1.1.49-1.1,1.1v28.23H1.1c-.61,0-1.1.49-1.1,1.1s.49,1.1,1.1,1.1h11.8v9.53H1.1c-.61,0-1.1.49-1.1,1.1s.49,1.1,1.1,1.1h12.9c.61,0,1.1-.49,1.1-1.1v-1.25h2.33l13.99,2.33ZM29.33,6.89v6.76l-2.07-.69c-.22-.07-.47-.07-.7,0l-2.07.69v-6.76h4.84ZM15.1,37.39h2.42c.29,0,.57-.12.78-.32l4.37-4.37h10.1c.69,0,1.25.56,1.25,1.25v1.25h-7.11c-.45,0-.87.29-1.03.71-.17.44-.03.96.34,1.25l5.87,4.69c.2.16.44.24.69.24h5.87c.22,0,.43-.06.61-.18.9-.6,3.6-2.16,5.26-2.16.65,0,.97.3,1.12.63l-6.21,3.1-7.87,2.25-13.83-2.31s-.02,0-.03,0c-.02,0-.04,0-.06,0s-.04,0-.06,0c-.01,0-.02,0-.03,0h-2.42v-6.01Z"/>
  <path class="st0" d="M73.83,65.62h-11.73s-.02,0-.04,0c-.02,0-.04,0-.06,0-.02,0-.04,0-.06,0-.01,0-.02,0-.03,0l-13.82,2.3-7.85-2.24-6.14-3.07c.16-.3.46-.52,1.02-.52,1.63,0,4.32,1.55,5.21,2.15.19.13.42.2.65.2h5.87c.16,0,.33-.03.48-.1l10.54-4.68c.51-.22.81-.78.69-1.33-.12-.54-.62-.94-1.17-.93h-5.84v-1.17c0-.65.53-1.17,1.17-1.17h10.07l4.35,4.35c.22.22.52.34.83.34h5.87c.65,0,1.17-.53,1.17-1.17s-.53-1.17-1.17-1.17h-5.38l-4.35-4.35c-.22-.22-.52-.34-.83-.34h-10.56c-1.94,0-3.52,1.58-3.52,3.52v2.35c0,.65.53,1.17,1.17,1.17h1.51l-.4.18h-3.11c-.99-.62-3.93-2.35-6.21-2.35s-3.32,1.71-3.49,3.09c-1.13-.5-2.42-.92-3.55-.92-2.58,0-3.52,2.1-3.52,3.52,0,.44.25.85.65,1.05l7.04,3.52c.06.03.13.06.2.08l8.21,2.35c.11.03.21.05.32.05.06,0,.13,0,.19-.02l13.98-2.33h11.63c.65,0,1.17-.53,1.17-1.17s-.53-1.17-1.17-1.17ZM41.15,60.46c.13-.26.35-.52,1-.52,1.47,0,3.82,1.27,4.92,1.96l-.47.21h-2.49c-.11-.15-.25-.28-.43-.37l-2.53-1.26s0,0,0,0Z"/>
</svg>