<?xml version="1.0" encoding="UTF-8"?>
<svg id="Layer_1" xmlns="http://www.w3.org/2000/svg" version="1.1" viewBox="0 0 20.07 19.09">
  <!-- Generator: Adobe Illustrator 30.3.0, SVG Export Plug-In . SVG Version: 2.1.3 Build 182)  -->
  <defs>
    <style>
      .st0 {
        fill: #aaa;
      }
    </style>
  </defs>
  <path class="st0" d="M14.75,11.81c-.57-.63-1.46-.74-2.16-.27l-1.21.82c-.49.33-1.65-.52-2.59-1.89-.75-1.09-1.17-2.24-1.06-2.86.04-.21.13-.3.2-.34l1.21-.82c.69-.47.92-1.34.55-2.1l-1.77-3.64c-.15-.32-.44-.54-.8-.64-.46-.12-1.01-.02-1.43.26l-2.42,1.64c-.76.52-1.5,1.72-.71,4.52.52,1.83,1.61,4.02,3.06,6.16,1.45,2.13,3.07,3.94,4.56,5.09,1.35,1.04,2.38,1.38,3.16,1.38.46,0,.9-.13,1.28-.38l2.42-1.64c.43-.29.72-.75.77-1.23.04-.37-.06-.72-.3-.98l-2.78-3.06ZM16.94,15.75c-.03.22-.18.45-.39.59l-2.42,1.64c-.23.15-.5.23-.78.22-.91,0-1.97-.69-2.62-1.19-1.42-1.09-2.97-2.83-4.37-4.89C3.41,7.75,2.3,3.7,3.78,2.69l2.42-1.64c.21-.14.48-.2.69-.14.11.03.19.09.23.17l1.77,3.64c.15.3.13.72-.24.97l-1.21.82c-.3.2-.5.52-.57.92-.25,1.3.85,3.03,1.2,3.53.55.8,1.18,1.46,1.78,1.87,1,.68,1.67.52,2.05.25l1.21-.82c.37-.25.77-.12.99.13l2.78,3.06c.06.07.09.16.07.28h0Z"/>
</svg>