<?xml version="1.0" encoding="UTF-8"?>
<svg id="Layer_1" xmlns="http://www.w3.org/2000/svg" version="1.1" viewBox="0 0 26.04 24.94">
  <!-- Generator: Adobe Illustrator 30.3.0, SVG Export Plug-In . SVG Version: 2.1.3 Build 182)  -->
  <defs>
    <style>
      .st0 {
        fill: #daa520;
      }
    </style>
  </defs>
  <path class="st0" d="M22.31,4.89h-.98c-1.75,0-3.18-1.43-3.18-3.18v-.98c0-.41-.33-.73-.73-.73h-3.91c-.41,0-.73.33-.73.73v16.62c0,1.21-.99,2.2-2.2,2.2s-2.2-.99-2.2-2.2.99-2.2,2.2-2.2c.41,0,.73-.33.73-.73v-3.91c0-.41-.33-.73-.73-.73-4.18,0-7.58,3.4-7.58,7.58s3.4,7.58,7.58,7.58,7.58-3.4,7.58-7.58v-7.7c1.01.41,2.08.61,3.18.61h.98c.41,0,.73-.33.73-.73v-3.91c0-.41-.33-.73-.73-.73ZM14.24,17.36V1.47h2.44v.24c0,2.56,2.08,4.65,4.65,4.65h.24v2.44h-.24c-1.25,0-2.47-.33-3.54-.95-.11-.06-.24-.1-.37-.1s-.26.03-.37.1c-.23.13-.37.38-.37.64v8.87c0,3.37-2.74,6.11-6.11,6.11s-6.11-2.74-6.11-6.11c0-3.09,2.34-5.7,5.38-6.07v2.47c-1.69.34-2.93,1.85-2.93,3.59,0,2.02,1.65,3.67,3.67,3.67s3.67-1.65,3.67-3.67Z"/>
</svg>