<?xml version="1.0" encoding="UTF-8"?>
<svg id="Layer_1" xmlns="http://www.w3.org/2000/svg" version="1.1" viewBox="0 0 75 75">
  <!-- Generator: Adobe Illustrator 30.3.0, SVG Export Plug-In . SVG Version: 2.1.3 Build 182)  -->
  <defs>
    <style>
      .st0 {
        fill: #292929;
      }
    </style>
  </defs>
  <path class="st0" d="M43.09,52.15c.27.64,1,.94,1.64.67.3-.13.54-.37.67-.67l3.77-9.02c.27-.64-.03-1.37-.67-1.64-.64-.27-1.37.03-1.64.67l-2.61,6.26-2.62-6.26c-.27-.64-1-.94-1.64-.67-.64.27-.94,1-.67,1.64h0l3.77,9.02Z"/>
  <path class="st0" d="M51.34,52.92c.69,0,1.25-.56,1.25-1.25v-9.02c0-.69-.56-1.25-1.25-1.25s-1.25.56-1.25,1.25v9.02c0,.69.56,1.25,1.25,1.25Z"/>
  <path class="st0" d="M55.88,52.92c.69,0,1.25-.56,1.25-1.25v-3.26h1.75c1.94,0,3.51-1.57,3.51-3.51s-1.57-3.51-3.51-3.51h-3c-.69,0-1.25.56-1.25,1.25v9.02c0,.69.56,1.25,1.25,1.25h0ZM57.13,43.9h1.75c.56,0,1.01.45,1.01,1.01s-.45,1.01-1.01,1.01h-1.75v-2.01Z"/>
  <path class="st0" d="M73.51,14.31L59.59.37c-.12-.12-.26-.21-.41-.28-.09-.03-.19-.05-.29-.06C58.82.02,58.76,0,58.7,0H21.6C20.91,0,20.35.56,20.35,1.25v14.86c-.29.02-.59.02-.88.05C9.79,17.29,2.16,24.92,1.04,34.59c-1.32,11.47,6.91,21.83,18.38,23.15.31.04.62.06.93.09v15.92c0,.69.56,1.25,1.25,1.25.27,0,.54-.09.76-.26l6.55-5,7.16,5.03c.39.27.89.3,1.31.08l9.78-5.21,7.73,5.14c.41.27.93.28,1.35.02l8.34-5.14,7.58,5.11c.57.39,1.35.23,1.73-.34.14-.21.21-.45.21-.7V15.38s0-.02,0-.04c0-.42-.23-.81-.59-1.03ZM59.95,4.27l9.81,9.82h-9.81V4.27ZM8.1,49.27c-6.79-7.58-6.15-19.24,1.44-26.03,2.84-2.55,6.41-4.15,10.2-4.58.71-.08,1.41-.12,2.12-.12,4.53-.01,8.91,1.66,12.27,4.7,3.91,3.5,6.14,8.49,6.15,13.73,0,.07,0,.14-.01.21l-.02.28c-.02.69.53,1.26,1.22,1.28.01,0,.02,0,.04,0h21.28c.96,0,1.74.78,1.74,1.74v13.18c0,.96-.78,1.74-1.74,1.74H21.84c-5.24,0-10.24-2.24-13.74-6.14h0ZM65.29,67.15c-.41-.27-.94-.29-1.35-.03l-8.34,5.14-7.68-5.12c-.38-.26-.87-.28-1.28-.06l-9.76,5.2-7.28-5.12c-.45-.31-1.04-.3-1.48.03l-5.27,4.03v-13.31h39.93c2.34,0,4.23-1.9,4.24-4.24v-13.18c0-2.34-1.9-4.24-4.24-4.24h-20.02c-.2-5.7-2.72-11.07-6.96-14.87-3.57-3.22-8.15-5.08-12.96-5.28V2.5h34.6v12.84c0,.69.56,1.25,1.25,1.25h12.9v54.8l-6.3-4.25Z"/>
  <g id="path1128">
    <path class="st0" d="M33.79,46.84H10.35c-.6,0-1.12-.43-1.24-1.02l-2.93-14.65c-.09-.47.09-.96.47-1.25.38-.29.9-.34,1.33-.13l7.88,3.94,5.22-6.53c.24-.3.6-.47.99-.47s.75.17.99.47l5.22,6.53,7.88-3.94c.43-.22.95-.17,1.33.13.38.29.57.78.47,1.25l-2.93,14.65c-.12.59-.64,1.02-1.24,1.02ZM11.39,44.31h21.37l2.22-11.1-6.48,3.24c-.53.27-1.18.12-1.55-.34l-4.87-6.09-4.87,6.09c-.37.47-1.02.61-1.55.34l-6.48-3.24,2.22,11.1Z"/>
  </g>
</svg>