<?xml version="1.0" encoding="UTF-8"?>
<svg id="Layer_1" xmlns="http://www.w3.org/2000/svg" version="1.1" viewBox="0 0 20.07 19.09">
  <!-- Generator: Adobe Illustrator 30.3.0, SVG Export Plug-In . SVG Version: 2.1.3 Build 182)  -->
  <defs>
    <style>
      .st0 {
        fill: #aaa;
      }
    </style>
  </defs>
  <path class="st0" d="M19.33,2.36s0-.01-.01-.02c-.01-.01-.02-.02-.04-.03-.42-.38-.98-.61-1.59-.61H2.38c-.61,0-1.17.23-1.59.61-.01.01-.03.02-.04.03,0,0,0,.01-.01.02C.28,2.79,0,3.4,0,4.08v10.93C0,15.69.28,16.3.74,16.74c0,0,0,.01.01.02.01.01.02.02.04.03.42.38.98.61,1.59.61h15.3c.61,0,1.17-.23,1.59-.61.01-.01.03-.02.04-.03,0,0,0-.01.01-.02.46-.43.74-1.05.74-1.72V4.08c0-.68-.28-1.29-.74-1.72ZM12.83,9.55l6.14-6.21c.13.22.2.47.2.74v10.93c0,.27-.07.52-.2.74l-6.14-6.21ZM17.69,2.6c.22,0,.42.05.61.13l-6.42,6.49s0,0,0,0c0,0,0,0,0,0l-1.12,1.13c-.19.19-.45.3-.72.3s-.53-.11-.72-.3l-1.12-1.13s0,0,0,0c0,0,0,0,0,0L1.77,2.73c.19-.08.39-.13.61-.13h15.3ZM1.1,15.76c-.13-.22-.2-.47-.2-.74V4.08c0-.27.07-.52.2-.74l6.14,6.21L1.1,15.76ZM2.38,16.49c-.22,0-.42-.05-.61-.13l6.1-6.17.8.8c.36.37.85.57,1.36.57s1-.2,1.36-.57l.8-.8,6.1,6.17c-.19.08-.39.13-.61.13H2.38Z"/>
</svg>