<?xml version="1.0" encoding="UTF-8"?>
<svg id="Layer_1" xmlns="http://www.w3.org/2000/svg" version="1.1" viewBox="0 0 20.07 19.09">
  <!-- Generator: Adobe Illustrator 30.3.0, SVG Export Plug-In . SVG Version: 2.1.3 Build 182)  -->
  <defs>
    <style>
      .st0 {
        fill: #aaa;
      }
    </style>
  </defs>
  <path class="st0" d="M18.91,16.97c0,.69-.91,1.22-2.79,1.6-1.63.34-3.79.52-6.09.52s-4.46-.18-6.09-.52c-1.88-.39-2.79-.91-2.79-1.6,0-.53.52-.95,1.59-1.29.87-.28,2.09-.51,3.53-.65.2-.02.39.13.41.33.02.2-.13.39-.33.41-1.36.14-2.51.34-3.33.6-1.04.33-1.12.6-1.12.6.01.09.42.52,2.26.88,1.57.32,3.66.49,5.87.49s4.3-.17,5.87-.49c1.83-.37,2.25-.79,2.26-.89,0,0-.08-.27-1.12-.6-.82-.26-1.97-.47-3.33-.6-.2-.02-.35-.2-.33-.41.02-.2.2-.35.41-.33,1.44.14,2.66.37,3.53.65,1.07.34,1.59.77,1.59,1.29h0ZM8.05,15.07c-2.03-2.54-4.56-5.69-4.56-8.52C3.49,2.94,6.43,0,10.04,0s6.55,2.94,6.55,6.55c0,2.82-2.53,5.98-4.56,8.52-.65.81-1.26,1.57-1.68,2.19-.07.1-.19.16-.31.16s-.24-.06-.31-.16c-.42-.62-1.03-1.39-1.68-2.19h0ZM4.23,6.55c0,2.56,2.44,5.61,4.4,8.05.51.64,1,1.25,1.4,1.8.4-.55.89-1.16,1.4-1.8,1.96-2.44,4.4-5.49,4.4-8.05,0-3.2-2.6-5.8-5.8-5.8s-5.8,2.6-5.8,5.8h0ZM10.04,8.53c-1.09,0-1.98-.89-1.98-1.98s.89-1.98,1.98-1.98,1.98.89,1.98,1.98-.89,1.98-1.98,1.98ZM10.04,7.79c.68,0,1.23-.55,1.23-1.23s-.55-1.23-1.23-1.23-1.23.55-1.23,1.23.55,1.23,1.23,1.23Z"/>
</svg>