<?xml version="1.0" encoding="UTF-8"?>
<svg id="Layer_1" xmlns="http://www.w3.org/2000/svg" version="1.1" viewBox="0 0 30 30">
  <!-- Generator: Adobe Illustrator 30.3.0, SVG Export Plug-In . SVG Version: 2.1.3 Build 182)  -->
  <path d="M29.69,28.12l-8.21-8.21-.27-.27.23-.3c4.05-5.22,3.11-12.76-2.11-16.82-2.12-1.65-4.66-2.52-7.34-2.52-3.73,0-7.19,1.69-9.47,4.63C-1.54,9.85-.59,17.4,4.63,21.45c2.09,1.63,4.7,2.52,7.35,2.52,2.66,0,5.27-.9,7.36-2.52l.3-.24.27.27,8.21,8.21c.2.2.48.31.77.31.3,0,.59-.12.8-.34.42-.43.42-1.11,0-1.54ZM18.89,18.89c-1.84,1.84-4.3,2.86-6.9,2.86s-5.06-1.02-6.9-2.86c-1.84-1.83-2.86-4.27-2.87-6.87,0-2.6.99-5.05,2.82-6.89l.05-.05c1.84-1.84,4.3-2.86,6.9-2.86,2.61,0,5.06,1.02,6.9,2.86,3.81,3.81,3.81,10,0,13.81Z"/>
</svg>