<?xml version="1.0" encoding="UTF-8"?>
<svg id="Layer_1" xmlns="http://www.w3.org/2000/svg" version="1.1" viewBox="0 0 24.01 24.61">
  <!-- Generator: Adobe Illustrator 30.3.0, SVG Export Plug-In . SVG Version: 2.1.3 Build 182)  -->
  <defs>
    <style>
      .st0 {
        fill: #d8d8d8;
      }
    </style>
  </defs>
  <path class="st0" d="M17.17,23.45c0,.64-.52,1.15-1.15,1.15H5.14c-2.12,0-3.84-1.72-3.84-3.84V3.84C1.3,1.72,3.02,0,5.14,0h10.87C16.65,0,17.17.52,17.17,1.15s-.52,1.15-1.15,1.15H5.14c-.85,0-1.54.69-1.54,1.54v16.92c0,.85.69,1.54,1.54,1.54h10.87c.64,0,1.15.52,1.15,1.15h0ZM22.38,11.49l-5.48-5.48c-.45-.46-1.18-.46-1.63-.02-.46.45-.46,1.18-.02,1.63,0,0,.01.01.02.02l3.51,3.51h-9.08c-.64,0-1.15.52-1.15,1.15s.52,1.15,1.15,1.15h9.08l-3.51,3.51c-.45.45-.45,1.18,0,1.63.45.45,1.18.45,1.63,0,0,0,0,0,0,0l5.48-5.48c.45-.45.45-1.18,0-1.63Z"/>
</svg>