<?xml version="1.0" encoding="UTF-8"?>
<svg id="Layer_1" xmlns="http://www.w3.org/2000/svg" version="1.1" viewBox="0 0 30.75 30.75">
  <!-- Generator: Adobe Illustrator 30.3.0, SVG Export Plug-In . SVG Version: 2.1.3 Build 182)  -->
  <defs>
    <style>
      .st0 {
        fill: #fff;
      }
    </style>
  </defs>
  <path class="st0" d="M15.38,0C6.9,0,0,6.9,0,15.38s6.9,15.38,15.38,15.38,15.37-6.9,15.37-15.38S23.85,0,15.38,0ZM15.38,8.96c2.02,0,3.66,1.64,3.66,3.66,0,.98-.38,1.9-1.07,2.59-.69.69-1.61,1.07-2.59,1.07-2.02,0-3.66-1.65-3.66-3.66,0-2.02,1.64-3.66,3.66-3.66ZM8.38,25.36c0-3.86,3.14-7,7-7s7,3.14,7,7v1.77c-4.34,2.59-9.66,2.59-13.99,0v-1.77ZM18.24,17.15c2.14-1.35,3.09-4.08,2.12-6.51-1.09-2.75-4.22-4.09-6.96-2.99-2.74,1.09-4.09,4.22-2.99,6.96.42,1.05,1.17,1.95,2.12,2.55-3.47,1.2-5.83,4.45-5.83,8.21v.57c-3.14-2.58-4.99-6.47-4.99-10.56C1.69,7.83,7.83,1.69,15.38,1.69s13.68,6.14,13.68,13.68c0,4.08-1.85,7.98-4.99,10.56v-.57c0-3.75-2.36-7-5.83-8.21ZM8,27.33h0,0Z"/>
</svg>